<svg width="18" height="20" viewBox="0 0 18 20" fill="none" xmlns="http://www.w3.org/2000/svg">
<path d="M4.948 0.250001C4.04954 0.249973 3.3003 0.249949 2.70552 0.329914C2.07773 0.414319 1.51093 0.59999 1.05546 1.05546C0.59999 1.51093 0.414319 2.07773 0.329914 2.70552C0.249949 3.3003 0.249973 4.04951 0.250001 4.94798L0.250003 5.95C0.250003 6.36422 0.58579 6.7 1 6.7C1.41422 6.7 1.75 6.36422 1.75 5.95V5C1.75 4.03599 1.7516 3.38843 1.81654 2.9054C1.87858 2.44393 1.9858 2.24644 2.11612 2.11612C2.24644 1.9858 2.44393 1.87858 2.9054 1.81654C3.38843 1.7516 4.03599 1.75 5 1.75H8.25V18.25H4C3.58579 18.25 3.25 18.5858 3.25 19C3.25 19.4142 3.58579 19.75 4 19.75H14C14.4142 19.75 14.75 19.4142 14.75 19C14.75 18.5858 14.4142 18.25 14 18.25H9.75V1.75H13C13.964 1.75 14.6116 1.7516 15.0946 1.81654C15.5561 1.87858 15.7536 1.9858 15.8839 2.11612C16.0142 2.24644 16.1214 2.44393 16.1835 2.9054C16.2484 3.38843 16.25 4.03599 16.25 5V5.95C16.25 6.36422 16.5858 6.7 17 6.7C17.4142 6.7 17.75 6.36422 17.75 5.95V4.94801C17.75 4.04953 17.7501 3.30031 17.6701 2.70552C17.5857 2.07773 17.4 1.51093 16.9445 1.05546C16.4891 0.59999 15.9223 0.414319 15.2945 0.329914C14.6997 0.249949 13.9505 0.249973 13.052 0.250001H4.948Z" fill="black"/>
</svg>
