<svg width="48" height="48" viewBox="0 0 48 48" fill="none" xmlns="http://www.w3.org/2000/svg">
<circle cx="24" cy="24" r="24" fill="url(#paint0_linear_126_15245)"/>
<g filter="url(#filter0_ddi_126_15245)">
<path d="M30.6477 20.2235C30.569 20.2235 30.502 20.2078 30.4469 20.1763C30.3918 20.1449 30.3485 20.0898 30.3171 20.0112L29.6322 18.407L27.9082 17.6521C27.8295 17.6206 27.7744 17.5774 27.7429 17.5223C27.7114 17.4673 27.6957 17.4004 27.6957 17.3218C27.6957 17.2431 27.7114 17.1763 27.7429 17.1213C27.7744 17.0662 27.8295 17.023 27.9082 16.9915L29.6322 16.2602L30.3171 14.7267C30.3485 14.6481 30.3918 14.593 30.4469 14.5616C30.502 14.5301 30.569 14.5144 30.6477 14.5144C30.7264 14.5144 30.7933 14.5301 30.8484 14.5616C30.9035 14.593 30.9468 14.6481 30.9783 14.7267L31.6632 16.2602L33.3871 16.9915C33.4658 17.023 33.5209 17.0662 33.5524 17.1213C33.5839 17.1763 33.5997 17.2431 33.5997 17.3218C33.5997 17.4004 33.5839 17.4673 33.5524 17.5223C33.5209 17.5774 33.4658 17.6206 33.3871 17.6521L31.6632 18.407L30.9783 20.0112C30.9468 20.0898 30.9035 20.1449 30.8484 20.1763C30.7933 20.2078 30.7264 20.2235 30.6477 20.2235ZM30.6477 34.284C30.5847 34.284 30.5217 34.2683 30.4587 34.2368C30.3958 34.2054 30.3485 34.1503 30.3171 34.0717L29.6322 32.5383L27.9318 31.8069C27.8531 31.7755 27.798 31.7322 27.7665 31.6772C27.735 31.6221 27.7193 31.5553 27.7193 31.4766C27.7193 31.398 27.735 31.3312 27.7665 31.2761C27.798 31.2211 27.8531 31.1778 27.9318 31.1464L29.6322 30.415L30.3171 28.7872C30.3485 28.7086 30.3918 28.6535 30.4469 28.6221C30.502 28.5906 30.569 28.5749 30.6477 28.5749C30.7264 28.5749 30.7933 28.5906 30.8484 28.6221C30.9035 28.6535 30.9468 28.7086 30.9783 28.7872L31.6632 30.415L33.3635 31.1464C33.4422 31.1778 33.4973 31.2211 33.5288 31.2761C33.5603 31.3312 33.5761 31.398 33.5761 31.4766C33.5761 31.5553 33.5603 31.6221 33.5288 31.6772C33.4973 31.7322 33.4422 31.7755 33.3635 31.8069L31.6632 32.5383L30.9783 34.0717C30.9468 34.1503 30.8996 34.2054 30.8366 34.2368C30.7736 34.2683 30.7107 34.284 30.6477 34.284ZM20.2803 30.2027C20.1543 30.2027 20.0323 30.1673 19.9142 30.0965C19.7961 30.0258 19.7056 29.9275 19.6426 29.8017L18.1076 26.5224L14.8014 25.0362C14.6754 24.9733 14.577 24.8828 14.5062 24.7649C14.4353 24.6469 14.3999 24.525 14.3999 24.3992C14.3999 24.2734 14.4353 24.1515 14.5062 24.0335C14.577 23.9156 14.6754 23.8252 14.8014 23.7622L18.1076 22.276L19.6426 19.0204C19.7056 18.8788 19.7961 18.7727 19.9142 18.7019C20.0323 18.6311 20.1543 18.5957 20.2803 18.5957C20.4062 18.5957 20.5282 18.6311 20.6463 18.7019C20.7644 18.7727 20.8549 18.871 20.9179 18.9968L22.4766 22.276L25.7592 23.7622C25.9009 23.8252 26.0071 23.9156 26.078 24.0335C26.1488 24.1515 26.1843 24.2734 26.1843 24.3992C26.1843 24.525 26.1488 24.6469 26.078 24.7649C26.0071 24.8828 25.9009 24.9733 25.7592 25.0362L22.4766 26.5224L20.9179 29.8017C20.8549 29.9432 20.7644 30.0454 20.6463 30.1083C20.5282 30.1713 20.4062 30.2027 20.2803 30.2027Z" fill="url(#paint1_linear_126_15245)" shape-rendering="crispEdges"/>
</g>
<defs>
<filter id="filter0_ddi_126_15245" x="8.03313" y="8.95263" width="31.2014" height="32.869" filterUnits="userSpaceOnUse" color-interpolation-filters="sRGB">
<feFlood flood-opacity="0" result="BackgroundImageFix"/>
<feColorMatrix in="SourceAlpha" type="matrix" values="0 0 0 0 0 0 0 0 0 0 0 0 0 0 0 0 0 0 127 0" result="hardAlpha"/>
<feOffset dx="-1.31726" dy="2.48816"/>
<feGaussianBlur stdDeviation="2.52475"/>
<feComposite in2="hardAlpha" operator="out"/>
<feColorMatrix type="matrix" values="0 0 0 0 0.0506089 0 0 0 0 0.0159861 0 0 0 0 0.191833 0 0 0 0.25 0"/>
<feBlend mode="normal" in2="BackgroundImageFix" result="effect1_dropShadow_126_15245"/>
<feColorMatrix in="SourceAlpha" type="matrix" values="0 0 0 0 0 0 0 0 0 0 0 0 0 0 0 0 0 0 127 0" result="hardAlpha"/>
<feOffset dx="1.24408" dy="-1.1709"/>
<feGaussianBlur stdDeviation="2.19544"/>
<feComposite in2="hardAlpha" operator="out"/>
<feColorMatrix type="matrix" values="0 0 0 0 1 0 0 0 0 1 0 0 0 0 1 0 0 0 0.35 0"/>
<feBlend mode="normal" in2="effect1_dropShadow_126_15245" result="effect2_dropShadow_126_15245"/>
<feBlend mode="normal" in="SourceGraphic" in2="effect2_dropShadow_126_15245" result="shape"/>
<feColorMatrix in="SourceAlpha" type="matrix" values="0 0 0 0 0 0 0 0 0 0 0 0 0 0 0 0 0 0 127 0" result="hardAlpha"/>
<feOffset dy="3.07361"/>
<feGaussianBlur stdDeviation="1.9393"/>
<feComposite in2="hardAlpha" operator="arithmetic" k2="-1" k3="1"/>
<feColorMatrix type="matrix" values="0 0 0 0 1 0 0 0 0 1 0 0 0 0 1 0 0 0 1 0"/>
<feBlend mode="normal" in2="shape" result="effect3_innerShadow_126_15245"/>
</filter>
<linearGradient id="paint0_linear_126_15245" x1="28.6588" y1="39.8118" x2="38.8667" y2="2.91111" gradientUnits="userSpaceOnUse">
<stop stop-color="#006FEE"/>
<stop offset="0.927091" stop-color="#96D1FF"/>
</linearGradient>
<linearGradient id="paint1_linear_126_15245" x1="27.356" y1="23.82" x2="24.3816" y2="37.6471" gradientUnits="userSpaceOnUse">
<stop stop-color="white" stop-opacity="0.96"/>
<stop offset="1" stop-color="white" stop-opacity="0.23"/>
</linearGradient>
</defs>
</svg>
