<svg width="12" height="12" viewBox="0 0 12 12" fill="none" xmlns="http://www.w3.org/2000/svg">
<path d="M4.08243 5.8148L7.39766 2.59995C7.60453 2.39935 8 2.52094 8 2.78515L8 9.21485C8 9.47906 7.60453 9.60065 7.39767 9.40005L4.08243 6.1852C3.97252 6.07863 3.97252 5.92137 4.08243 5.8148Z" fill="#E5E5E5"/>
<path d="M7.39766 2.59995L7.91978 3.13837L7.91978 3.13837L7.39766 2.59995ZM4.08243 5.8148L3.56031 5.27638L3.56031 5.27638L4.08243 5.8148ZM4.08243 6.1852L4.60454 5.64678L4.60454 5.64678L4.08243 6.1852ZM7.39767 9.40005L7.91978 8.86163H7.91978L7.39767 9.40005ZM7.39766 2.59995L7.91978 3.13837L4.60454 6.35322L4.08243 5.8148L3.56031 5.27638L6.87555 2.06153L7.39766 2.59995ZM4.08243 6.1852L4.60454 5.64678L7.91978 8.86163L7.39767 9.40005L6.87555 9.93847L3.56031 6.72362L4.08243 6.1852ZM8 9.21485L7.25 9.21485L7.25 2.78515L8 2.78515L8.75 2.78515L8.75 9.21485L8 9.21485ZM7.39767 9.40005L7.91978 8.86163C7.78954 8.73534 7.63915 8.7393 7.55598 8.76488C7.47872 8.78863 7.25 8.91316 7.25 9.21485L8 9.21485L8.75 9.21485C8.75 9.78075 8.32355 10.0982 7.99683 10.1986C7.66421 10.3009 7.21265 10.2654 6.87555 9.93847L7.39767 9.40005ZM4.08243 5.8148L4.60454 6.35322C4.6857 6.27451 4.75 6.14989 4.75 6C4.75 5.85011 4.6857 5.72549 4.60454 5.64678L4.08243 6.1852L3.56031 6.72362C3.14656 6.3224 3.14656 5.6776 3.56031 5.27638L4.08243 5.8148ZM7.39766 2.59995L6.87555 2.06153C7.21265 1.73463 7.66421 1.6991 7.99683 1.80137C8.32355 1.90183 8.75 2.21925 8.75 2.78515L8 2.78515L7.25 2.78515C7.25 3.08684 7.47872 3.21137 7.55598 3.23512C7.63915 3.2607 7.78954 3.26466 7.91978 3.13837L7.39766 2.59995Z" fill="#E5E5E5"/>
</svg>
