<svg width="17" height="16" viewBox="0 0 17 16" fill="none" xmlns="http://www.w3.org/2000/svg">
<path fill-rule="evenodd" clip-rule="evenodd" d="M2.5 7.25C2.08579 7.25 1.75 7.58579 1.75 8C1.75 8.41421 2.08579 8.75 2.5 8.75L8.18934 8.75L5.46967 11.4697C5.17678 11.7626 5.17678 12.2374 5.46967 12.5303C5.76256 12.8232 6.23744 12.8232 6.53033 12.5303L10.5303 8.53033C10.8232 8.23744 10.8232 7.76256 10.5303 7.46967L6.53033 3.46967C6.23744 3.17678 5.76256 3.17678 5.46967 3.46967C5.17678 3.76256 5.17678 4.23744 5.46967 4.53033L8.18934 7.25L2.5 7.25ZM9.96967 11.4697C9.67678 11.7626 9.67678 12.2374 9.96967 12.5303C10.2626 12.8232 10.7374 12.8232 11.0303 12.5303L15.0303 8.53033C15.3232 8.23744 15.3232 7.76256 15.0303 7.46967L11.0303 3.46967C10.7374 3.17678 10.2626 3.17678 9.96967 3.46967C9.67678 3.76256 9.67678 4.23744 9.96967 4.53033L13.4393 8L9.96967 11.4697Z" fill="#FCFCFC"/>
</svg>
