<svg width="20" height="22" viewBox="0 0 20 22" fill="none" xmlns="http://www.w3.org/2000/svg">
<path fill-rule="evenodd" clip-rule="evenodd" d="M4.91723 1.99515C5.03443 0.887732 5.97139 0.0249023 7.10988 0.0249023H12.0099C13.1484 0.0249023 14.0853 0.887732 14.2025 1.99515C14.9504 2.01037 15.597 2.04906 16.1491 2.15047C16.8919 2.28692 17.5241 2.54685 18.0385 3.06129C18.6284 3.65116 18.8821 4.39388 19.0007 5.27599C19.1149 6.12561 19.1149 7.20589 19.1149 8.54613V14.5337C19.1149 15.8739 19.1149 16.9542 19.0007 17.8038C18.8821 18.6859 18.6284 19.4286 18.0385 20.0185C17.4486 20.6084 16.7059 20.8621 15.8238 20.9807C14.9742 21.0949 13.8939 21.0949 12.5537 21.0949H6.56611C5.22587 21.0949 4.1456 21.0949 3.29597 20.9807C2.41386 20.8621 1.67114 20.6084 1.08127 20.0185C0.491388 19.4286 0.237672 18.6859 0.119076 17.8038C0.00484684 16.9542 0.00486314 15.8739 0.00488335 14.5337V8.54613C0.00486314 7.20589 0.00484684 6.12561 0.119076 5.27599C0.237672 4.39388 0.491388 3.65116 1.08127 3.06128C1.5957 2.54685 2.22787 2.28692 2.97071 2.15047C3.52281 2.04906 4.16941 2.01037 4.91723 1.99515ZM4.91955 3.46555C4.21573 3.48058 3.67338 3.51599 3.23628 3.59628C2.68081 3.69831 2.3593 3.86215 2.12071 4.10073C1.84949 4.37196 1.67265 4.75276 1.57597 5.47186C1.47644 6.2121 1.47488 7.19319 1.47488 8.5999V14.4799C1.47488 15.8866 1.47644 16.8677 1.57597 17.6079C1.67265 18.327 1.84949 18.7078 2.12071 18.9791C2.39194 19.2503 2.77274 19.4271 3.49184 19.5238C4.23209 19.6233 5.21318 19.6249 6.61988 19.6249H12.4999C13.9066 19.6249 14.8877 19.6233 15.6279 19.5238C16.347 19.4271 16.7278 19.2503 16.9991 18.9791C17.2703 18.7078 17.4471 18.327 17.5438 17.6079C17.6433 16.8677 17.6449 15.8866 17.6449 14.4799V8.5999C17.6449 7.19319 17.6433 6.2121 17.5438 5.47186C17.4471 4.75276 17.2703 4.37196 16.9991 4.10073C16.7605 3.86215 16.439 3.69831 15.8835 3.59628C15.4464 3.51599 14.904 3.48058 14.2002 3.46555C14.0735 4.56291 13.1412 5.4149 12.0099 5.4149H7.10988C5.97856 5.4149 5.04624 4.56291 4.91955 3.46555ZM7.10988 1.4949C6.70395 1.4949 6.37488 1.82397 6.37488 2.2299V3.2099C6.37488 3.61583 6.70395 3.9449 7.10988 3.9449H12.0099C12.4158 3.9449 12.7449 3.61583 12.7449 3.2099V2.2299C12.7449 1.82397 12.4158 1.4949 12.0099 1.4949H7.10988ZM3.92488 9.0899C3.92488 8.68397 4.25395 8.3549 4.65988 8.3549H14.4599C14.8658 8.3549 15.1949 8.68397 15.1949 9.0899C15.1949 9.49583 14.8658 9.8249 14.4599 9.8249H4.65988C4.25395 9.8249 3.92488 9.49583 3.92488 9.0899ZM4.90488 12.5199C4.90488 12.114 5.23395 11.7849 5.63988 11.7849H13.4799C13.8858 11.7849 14.2149 12.114 14.2149 12.5199C14.2149 12.9258 13.8858 13.2549 13.4799 13.2549H5.63988C5.23395 13.2549 4.90488 12.9258 4.90488 12.5199ZM5.88488 15.9499C5.88488 15.544 6.21395 15.2149 6.61988 15.2149H12.4999C12.9058 15.2149 13.2349 15.544 13.2349 15.9499C13.2349 16.3558 12.9058 16.6849 12.4999 16.6849H6.61988C6.21395 16.6849 5.88488 16.3558 5.88488 15.9499Z" fill="white"/>
</svg>
