<svg width="25" height="25" viewBox="0 0 25 25" fill="none" xmlns="http://www.w3.org/2000/svg">
<path fill-rule="evenodd" clip-rule="evenodd" d="M12.4426 1.75H12.5574C14.8658 1.74999 16.6748 1.74998 18.0863 1.93975C19.531 2.13399 20.6711 2.53933 21.5659 3.43414C22.4607 4.32895 22.866 5.46897 23.0603 6.91371C23.25 8.32519 23.25 10.1342 23.25 12.4426V12.5574C23.25 14.8658 23.25 16.6748 23.0603 18.0863C22.866 19.531 22.4607 20.6711 21.5659 21.5659C20.6711 22.4607 19.531 22.866 18.0863 23.0603C16.6748 23.25 14.8658 23.25 12.5574 23.25H12.4426C10.1342 23.25 8.32519 23.25 6.91371 23.0603C5.46897 22.866 4.32895 22.4607 3.43414 21.5659C2.53933 20.6711 2.13399 19.531 1.93975 18.0863C1.74998 16.6748 1.74999 14.8658 1.75 12.5574V12.4426C1.74999 10.1342 1.74998 8.32519 1.93975 6.91371C2.13399 5.46897 2.53933 4.32895 3.43414 3.43414C4.32895 2.53933 5.46897 2.13399 6.91371 1.93975C8.32519 1.74998 10.1342 1.74999 12.4426 1.75ZM7.11358 3.42637C5.83517 3.59825 5.06445 3.92514 4.4948 4.4948C3.92514 5.06445 3.59825 5.83517 3.42637 7.11358C3.25159 8.41356 3.25 10.1218 3.25 12.5C3.25 14.8782 3.25159 16.5864 3.42637 17.8864C3.59825 19.1648 3.92514 19.9355 4.4948 20.5052C5.06445 21.0749 5.83517 21.4018 7.11358 21.5736C8.41356 21.7484 10.1218 21.75 12.5 21.75C14.8782 21.75 16.5864 21.7484 17.8864 21.5736C19.1648 21.4018 19.9355 21.0749 20.5052 20.5052C21.0749 19.9355 21.4018 19.1648 21.5736 17.8864C21.7484 16.5864 21.75 14.8782 21.75 12.5C21.75 10.1218 21.7484 8.41356 21.5736 7.11358C21.4018 5.83517 21.0749 5.06445 20.5052 4.4948C19.9355 3.92514 19.1648 3.59825 17.8864 3.42637C16.5864 3.25159 14.8782 3.25 12.5 3.25C10.1218 3.25 8.41356 3.25159 7.11358 3.42637ZM12.5 7.75C12.9142 7.75 13.25 8.08579 13.25 8.5V12.1893L15.5303 14.4697C15.8232 14.7626 15.8232 15.2374 15.5303 15.5303C15.2374 15.8232 14.7626 15.8232 14.4697 15.5303L12.3358 13.3964C12.0468 13.1074 11.9022 12.9629 11.8261 12.7791C11.75 12.5954 11.75 12.391 11.75 11.9822V8.5C11.75 8.08579 12.0858 7.75 12.5 7.75Z" fill="#FCFCFC"/>
</svg>
