<svg width="20" height="20" viewBox="0 0 20 20" fill="none" xmlns="http://www.w3.org/2000/svg">
<path d="M18.894 11.2038C19.6689 10.433 20.1447 9.3795 19.9603 8.305C19.151 3.58941 15.0229 0 10.0521 0C4.50046 0 0 4.47715 0 10C0 15.5228 4.50046 20 10.0521 20C10.7764 20 11.4828 19.9238 12.1637 19.779C12.8254 19.6383 13.3298 19.127 13.552 18.4911L13.583 18.4024C13.8748 17.567 13.5901 16.6398 12.8789 16.1092L11.8013 15.3051C10.8781 14.6163 10.7822 13.2737 11.5982 12.4619C12.1908 11.8724 13.0673 11.6665 13.8623 11.9302L14.6661 12.1967C16.1507 12.689 17.7875 12.3046 18.894 11.2038ZM16.0833 5.5C16.0833 6.32843 15.4082 7 14.5755 7C13.7428 7 13.0677 6.32843 13.0677 5.5C13.0677 4.67157 13.7428 4 14.5755 4C15.4082 4 16.0833 4.67157 16.0833 5.5ZM10.0521 5C9.2193 5 8.5443 4.32843 8.5443 3.5C8.5443 2.67157 9.2193 2 10.0521 2C10.8848 2 11.5599 2.67157 11.5599 3.5C11.5599 4.32843 10.8848 5 10.0521 5ZM7.03645 5.5C7.03645 6.32843 6.36138 7 5.52864 7C4.6959 7 4.02083 6.32843 4.02083 5.5C4.02083 4.67157 4.6959 4 5.52864 4C6.36138 4 7.03645 4.67157 7.03645 5.5ZM3.51822 11.5C2.68548 11.5 2.01041 10.8284 2.01041 10C2.01041 9.1716 2.68548 8.5 3.51822 8.5C4.35096 8.5 5.02603 9.1716 5.02603 10C5.02603 10.8284 4.35096 11.5 3.51822 11.5Z" fill="black"/>
</svg>
