<svg width="21" height="22" viewBox="0 0 21 22" fill="none" xmlns="http://www.w3.org/2000/svg">
<path fill-rule="evenodd" clip-rule="evenodd" d="M13.2836 0.472972C13.5747 0.767677 13.5717 1.24254 13.277 1.53361L12.3206 2.4782C13.1527 2.48661 13.953 2.50689 14.6753 2.55577C15.2964 2.59781 15.878 2.66204 16.3849 2.76288C16.8813 2.86165 17.3597 3.00551 17.7396 3.23545C18.4457 3.66284 19.0404 4.24979 19.4742 4.94897C19.8915 5.62164 20.0754 6.38197 20.1637 7.29884C20.25 8.19586 20.25 9.31687 20.25 10.7383V10.7778C20.25 11.192 19.9142 11.5278 19.5 11.5278C19.0858 11.5278 18.75 11.192 18.75 10.7778C18.75 9.30819 18.7492 8.25933 18.6706 7.44258C18.593 6.63739 18.4453 6.1359 18.1996 5.7398C17.8913 5.24293 17.4677 4.82427 16.9629 4.51871C16.8018 4.42118 16.5215 4.31946 16.0922 4.23404C15.6733 4.1507 15.1621 4.09215 14.574 4.05235C13.8945 4.00636 13.1366 3.98677 12.3329 3.97843L13.277 4.91087C13.5717 5.20194 13.5747 5.67681 13.2836 5.97151C12.9925 6.26622 12.5177 6.26916 12.223 5.97809L9.97297 3.75585C9.8303 3.61494 9.75 3.42277 9.75 3.22224C9.75 3.02172 9.8303 2.82954 9.97297 2.68863L12.223 0.466389C12.5177 0.175319 12.9925 0.178266 13.2836 0.472972ZM8.55 3.2208C8.55127 3.63501 8.21651 3.97182 7.8023 3.97309C5.49727 3.98015 4.79497 4.06002 4.0371 4.51871C3.53225 4.82427 3.1087 5.24293 2.80042 5.7398C2.55466 6.1359 2.40695 6.63739 2.32944 7.44258C2.25081 8.25933 2.25 9.30819 2.25 10.7778V11.6667C2.25 12.7125 2.25042 13.4588 2.29103 14.0468C2.33118 14.6279 2.408 14.9988 2.53418 15.2997C2.91322 16.2035 3.64155 16.9244 4.56191 17.3009C5.01282 17.4854 5.59333 17.5567 6.72338 17.5759L6.75403 17.5764C7.11042 17.5825 7.42708 17.5878 7.69112 17.6167C7.97626 17.6479 8.26085 17.7115 8.53609 17.8696C8.80935 18.0265 9.00544 18.2359 9.17384 18.4641C9.32807 18.6732 9.48593 18.9366 9.66142 19.2295L10.1653 20.0703C10.2329 20.183 10.3541 20.25 10.5 20.25C10.6458 20.25 10.7671 20.183 10.8347 20.0703L11.3385 19.2295C11.514 18.9366 11.6719 18.6732 11.8261 18.4641C11.9945 18.2359 12.1906 18.0265 12.4639 17.8696C12.7391 17.7115 13.0237 17.6479 13.3088 17.6167C13.5729 17.5878 13.8895 17.5825 14.2459 17.5764L14.2766 17.5759C15.4067 17.5567 15.9872 17.4854 16.4381 17.3009C17.3585 16.9244 18.0868 16.2035 18.4658 15.2997C18.6349 14.8964 18.7114 14.3805 18.737 13.4245C18.7481 13.0104 19.0928 12.6837 19.5068 12.6948C19.9209 12.7059 20.2476 13.0506 20.2365 13.4646C20.2102 14.4457 20.1333 15.2021 19.8491 15.8798C19.3147 17.1541 18.291 18.1636 17.0061 18.6892C16.2684 18.991 15.4317 19.0565 14.3021 19.0757C13.9057 19.0824 13.659 19.0874 13.4719 19.1078C13.2984 19.1268 13.2397 19.1538 13.211 19.1702C13.1804 19.1879 13.1299 19.2236 13.0331 19.3548C12.9268 19.4988 12.8057 19.6993 12.6092 20.0272L12.1213 20.8413C11.3952 22.0529 9.60473 22.0529 8.87865 20.8413L8.39077 20.0272C8.19426 19.6993 8.07318 19.4988 7.96688 19.3548C7.87008 19.2236 7.8196 19.1879 7.78893 19.1702C7.76024 19.1538 7.70155 19.1268 7.52805 19.1078C7.341 19.0874 7.09427 19.0824 6.69786 19.0757C5.56826 19.0565 4.73158 18.991 3.99394 18.6892C2.70905 18.1636 1.68531 17.1541 1.1509 15.8798C0.934546 15.3639 0.840097 14.8087 0.794601 14.1502C0.749993 13.5044 0.749996 12.7064 0.75 11.6946V10.7383C0.749993 9.31686 0.749987 8.19586 0.836342 7.29884C0.924607 6.38197 1.10846 5.62164 1.52582 4.94897C1.95964 4.24979 2.55426 3.66284 3.26042 3.23545C4.43013 2.52749 5.5617 2.47995 7.7977 2.4731C8.21191 2.47183 8.54873 2.80658 8.55 3.2208Z" fill="black"/>
</svg>
