<svg width="41" height="40" viewBox="0 0 41 40" fill="none" xmlns="http://www.w3.org/2000/svg">
<path d="M16.8022 6.4846C17.742 5.68372 18.2119 5.28328 18.7032 5.04846C19.8395 4.50533 21.1605 4.50533 22.2968 5.04846C22.7881 5.28328 23.258 5.68372 24.1978 6.4846C24.5719 6.80335 24.7589 6.96273 24.9586 7.0966C25.4165 7.40348 25.9307 7.61646 26.4714 7.72322C26.7073 7.76979 26.9522 7.78934 27.4421 7.82843C28.673 7.92665 29.2884 7.97576 29.8018 8.15712C30.9894 8.57657 31.9235 9.51067 32.3429 10.6982C32.5243 11.2117 32.5734 11.8271 32.6716 13.0579C32.7107 13.5478 32.7303 13.7927 32.7768 14.0286C32.8836 14.5694 33.0966 15.0836 33.4034 15.5414C33.5373 15.7412 33.6967 15.9282 34.0154 16.3022C34.8163 17.242 35.2168 17.7119 35.4516 18.2032C35.9947 19.3395 35.9947 20.6605 35.4516 21.7968C35.2168 22.2881 34.8163 22.758 34.0154 23.6978C33.6967 24.0719 33.5373 24.2589 33.4034 24.4586C33.0966 24.9165 32.8836 25.4307 32.7768 25.9714C32.7303 26.2073 32.7107 26.4522 32.6716 26.9421C32.5734 28.173 32.5243 28.7884 32.3429 29.3018C31.9235 30.4894 30.9894 31.4235 29.8018 31.8429C29.2884 32.0243 28.673 32.0734 27.4421 32.1716C26.9522 32.2107 26.7073 32.2303 26.4714 32.2768C25.9307 32.3836 25.4165 32.5966 24.9586 32.9034C24.7589 33.0373 24.5719 33.1967 24.1978 33.5154C23.258 34.3163 22.7881 34.7168 22.2968 34.9516C21.1605 35.4947 19.8395 35.4947 18.7032 34.9516C18.2119 34.7168 17.742 34.3163 16.8022 33.5154C16.4282 33.1967 16.2412 33.0373 16.0414 32.9034C15.5836 32.5966 15.0694 32.3836 14.5286 32.2768C14.2927 32.2303 14.0478 32.2107 13.5579 32.1716C12.3271 32.0734 11.7117 32.0243 11.1982 31.8429C10.0107 31.4235 9.07657 30.4894 8.65712 29.3018C8.47576 28.7884 8.42665 28.173 8.32843 26.9421C8.28934 26.4522 8.26979 26.2073 8.22322 25.9714C8.11646 25.4307 7.90348 24.9165 7.5966 24.4586C7.46273 24.2589 7.30335 24.0719 6.9846 23.6978C6.18372 22.758 5.78328 22.2881 5.54846 21.7968C5.00533 20.6605 5.00533 19.3395 5.54846 18.2032C5.78328 17.7119 6.18372 17.242 6.9846 16.3022C7.30335 15.9282 7.46273 15.7412 7.5966 15.5414C7.90348 15.0836 8.11646 14.5694 8.22322 14.0286C8.26979 13.7927 8.28934 13.5478 8.32843 13.0579C8.42665 11.8271 8.47576 11.2117 8.65712 10.6982C9.07657 9.51067 10.0107 8.57657 11.1982 8.15712C11.7117 7.97576 12.3271 7.92665 13.5579 7.82843C14.0478 7.78934 14.2927 7.76979 14.5286 7.72322C15.0694 7.61646 15.5836 7.40348 16.0414 7.0966C16.2412 6.96273 16.4282 6.80335 16.8022 6.4846Z" stroke="#A5B4FC" stroke-width="1.5"/>
<path d="M14.6665 20.8333L17.9998 24.1666L26.3332 15.8333" stroke="#A5B4FC" stroke-width="1.5" stroke-linecap="round" stroke-linejoin="round"/>
</svg>
