<svg width="16" height="24" viewBox="0 0 16 24" fill="none" xmlns="http://www.w3.org/2000/svg">
<path fill-rule="evenodd" clip-rule="evenodd" d="M11.4233 4C13.3986 4 15 5.60135 15 7.57671C15 7.84774 14.8923 8.10767 14.7007 8.29931L14.1722 8.8278L12.201 10.799C12.2009 10.7991 12.2008 10.7992 12.2007 10.7993L7.14226 15.8577C6.72345 16.2765 6.19006 16.562 5.60928 16.6781L2.97084 17.2058C2.27112 17.3458 1.6542 16.7289 1.79415 16.0291L2.32183 13.3907C2.43799 12.8099 2.72345 12.2765 3.14226 11.8577L8.20066 6.79931C8.20086 6.79911 8.20106 6.79891 8.20126 6.79871L10.7007 4.29931C10.8923 4.10767 11.1522 4 11.4233 4ZM9.11276 8.00853L4.20292 12.9184C3.99351 13.1278 3.85078 13.3945 3.7927 13.6849L3.4121 15.5879L5.31511 15.2073C5.5692 15.1564 5.80515 15.0408 6.00045 14.8724C6.02835 14.8484 6.05542 14.8232 6.0816 14.7971L10.9914 9.88721C10.9014 8.8915 10.1085 8.0986 9.11276 8.00853ZM12.2115 8.66715C11.8501 7.82518 11.1748 7.14986 10.3328 6.78847L11.6128 5.50853C12.6085 5.5986 13.4014 6.3915 13.4914 7.38721L12.2115 8.66715Z" fill="#A3A3A3"/>
</svg>
