<svg width="25" height="24" viewBox="0 0 25 24" fill="none" xmlns="http://www.w3.org/2000/svg">
<g clip-path="url(#clip0_2261_15200)">
<path d="M3.49219 3.5H14V4.5H8V19.5H17V9.5H18V11.5H22V20.0068C21.9999 20.2763 21.771 20.5 21.5078 20.5H3.49219C3.22146 20.5 3.00013 20.2799 3 20.0068V3.99316C3.00013 3.72369 3.22899 3.5 3.49219 3.5ZM4 19.5H7V16.5H4V19.5ZM18 19.5H21V16.5H18V19.5ZM4 15.5H7V12.5H4V15.5ZM18 15.5H21V12.5H18V15.5ZM4 11.5H7V8.5H4V11.5ZM20.5088 1.51074L20.7617 2.12207C21.2418 3.28093 22.1389 4.21011 23.2715 4.71387L23.9883 5.0332C23.9904 5.03414 23.9923 5.03463 23.9932 5.03516L23.9951 5.03613V5.03711C23.9965 5.03937 24 5.04669 24 5.05762C24 5.06858 23.9965 5.07586 23.9951 5.07812V5.0791L23.9932 5.08008C23.9923 5.0806 23.9904 5.08107 23.9883 5.08203L23.2295 5.41992C22.1253 5.91104 21.2433 6.80772 20.7549 7.92871L20.5088 8.49414C20.5062 8.50008 20.5037 8.50293 20.5029 8.50391H20.4971L20.4912 8.49414L20.2451 7.92871C19.7567 6.80772 18.8747 5.91104 17.7705 5.41992L17.0107 5.08203L17.0049 5.0791V5.07812C17.0035 5.07585 17 5.0686 17 5.05762C17 5.04666 17.0035 5.03938 17.0049 5.03711V5.03613L17.0107 5.0332L17.7285 4.71387C18.8611 4.21011 19.7583 3.28096 20.2383 2.12207L20.4912 1.51074C20.4943 1.50334 20.4967 1.50039 20.4971 1.5H20.5029L20.5088 1.51074ZM4 7.5H7V4.5H4V7.5Z" fill="white" stroke="white"/>
</g>
<defs>
<clipPath id="clip0_2261_15200">
<rect width="24" height="24" fill="white" transform="translate(0.5)"/>
</clipPath>
</defs>
</svg>
