<svg width="13" height="15" viewBox="0 0 13 15" fill="none" xmlns="http://www.w3.org/2000/svg">
<path fill-rule="evenodd" clip-rule="evenodd" d="M11.0391 2.13835C10.7708 1.59423 10.2011 1.26532 9.59568 1.305C9.51388 1.31036 9.42069 1.32788 9.25502 1.36897L8.95771 3.86175L11.0364 3.30477C11.1145 3.28385 11.1609 3.27133 11.1956 3.26075C11.2176 3.25406 11.2269 3.25045 11.2291 3.24953C11.2885 3.21968 11.3244 3.15739 11.3206 3.09106C11.3203 3.08865 11.3188 3.07877 11.3136 3.05642C11.3054 3.0211 11.293 2.9746 11.2721 2.89652C11.1456 2.42455 11.0989 2.25972 11.0391 2.13835ZM7.91738 4.1405L8.215 1.64511L5.06965 2.4879L4.77203 4.98329L7.91738 4.1405ZM3.7317 5.26205L4.02932 2.76668C3.48458 2.91284 3.09521 3.01968 2.7955 3.12982C2.47989 3.24581 2.3106 3.34961 2.19362 3.46659C2.00744 3.65277 1.87354 3.88468 1.80539 4.13902C1.76257 4.29881 1.75733 4.49732 1.81469 4.82864C1.85639 5.06956 1.92607 5.35504 2.02188 5.7202L3.7317 5.26205ZM1.16654 6.39497C1.01599 5.83304 0.894807 5.37738 0.829341 4.99921C0.760107 4.59927 0.743582 4.23804 0.839466 3.8802C0.953046 3.45631 1.17621 3.06979 1.48651 2.75948C1.74847 2.49752 2.06957 2.33121 2.45055 2.1912C2.82018 2.05536 3.2898 1.92953 3.87209 1.77351L4.39258 1.63405C4.45091 1.6051 4.51534 1.58729 4.58278 1.58309L8.56378 0.51638C8.56862 0.515081 8.57345 0.513786 8.57827 0.512497C8.63668 0.483502 8.70122 0.465692 8.76876 0.461518C9.08472 0.377519 9.316 0.321183 9.53028 0.307138C10.5393 0.241005 11.4887 0.789185 11.936 1.69606C12.0453 1.91773 12.1173 2.1869 12.223 2.58182C12.228 2.60017 12.2329 2.6188 12.238 2.6377C12.2408 2.64798 12.2435 2.65831 12.2463 2.66867C12.2779 2.78577 12.3108 2.90762 12.3184 3.02434C12.3493 3.4952 12.0934 3.93829 11.6702 4.147C11.5653 4.19873 11.4434 4.23121 11.3262 4.26242C11.3158 4.26519 11.3055 4.26794 11.2952 4.27069L5.46472 5.83297L9.70121 5.83297C10.3002 5.83295 10.7997 5.83293 11.1962 5.88624C11.6147 5.94251 11.9926 6.06629 12.2962 6.36994C12.5999 6.67358 12.7237 7.05145 12.7799 7.46998C12.8332 7.8665 12.8332 8.36598 12.8332 8.96497V9.70288C12.8332 10.6146 12.8332 11.3495 12.7555 11.9275C12.6749 12.5275 12.5023 13.0328 12.101 13.4341C11.6997 13.8353 11.1945 14.0079 10.5944 14.0886C10.0164 14.1663 9.28152 14.1663 8.36979 14.1663H5.62996C4.71824 14.1663 3.98336 14.1663 3.40538 14.0886C2.8053 14.0079 2.30005 13.8353 1.89878 13.4341C1.4975 13.0328 1.3249 12.5275 1.24423 11.9275C1.16652 11.3495 1.16653 10.6146 1.16654 9.70288L1.16654 6.39497ZM2.16654 6.83297V9.6663C2.16654 10.6232 2.16761 11.2907 2.23531 11.7942C2.30108 12.2834 2.42138 12.5425 2.60588 12.727C2.79039 12.9115 3.04944 13.0318 3.53862 13.0975C4.04219 13.1652 4.7096 13.1663 5.66654 13.1663H8.33321C9.29015 13.1663 9.95756 13.1652 10.4611 13.0975C10.9503 13.0318 11.2094 12.9115 11.3939 12.727C11.5784 12.5425 11.6987 12.2834 11.7644 11.7942C11.8321 11.2907 11.8332 10.6232 11.8332 9.6663V8.99963C11.8332 8.35696 11.8321 7.92525 11.7889 7.60323C11.7475 7.29559 11.676 7.16392 11.5891 7.07704C11.5023 6.99017 11.3706 6.91869 11.0629 6.87732C10.7409 6.83403 10.3092 6.83297 9.66654 6.83297H2.16654ZM7.79896 8.71991C7.80933 8.72734 7.81972 8.73479 7.83012 8.74226C7.83945 8.74895 7.84877 8.75562 7.85806 8.76228C8.09867 8.93471 8.32454 9.09658 8.48506 9.25432C8.66513 9.43127 8.83321 9.66982 8.83321 9.99963C8.83321 10.3294 8.66513 10.568 8.48506 10.745C8.32454 10.9027 8.09867 11.0646 7.85805 11.237L7.83012 11.257C7.81971 11.2645 7.80932 11.2719 7.79895 11.2794C7.55774 11.4524 7.32779 11.6173 7.13104 11.7144C6.92104 11.818 6.57562 11.9285 6.24503 11.6951C5.95796 11.4925 5.88926 11.1652 5.86179 10.9361C5.83316 10.6975 5.83318 10.386 5.83321 10.0307V9.96857C5.83318 9.6133 5.83316 9.3018 5.86179 9.06313C5.88926 8.83408 5.95796 8.50676 6.24503 8.30412C6.57562 8.07076 6.92104 8.18129 7.13104 8.2849C7.32779 8.38196 7.55774 8.5469 7.79896 8.71991ZM6.84598 9.27435C6.83383 9.44078 6.83321 9.66958 6.83321 9.99963C6.83321 10.3297 6.83382 10.5585 6.84597 10.7249C6.94509 10.6603 7.07317 10.5693 7.24747 10.4443C7.52607 10.2446 7.68607 10.1281 7.78416 10.0317C7.797 10.0191 7.80707 10.0084 7.81492 9.99963C7.80707 9.99083 7.797 9.98019 7.78416 9.96758C7.68607 9.87119 7.52607 9.75471 7.24747 9.55498C7.07317 9.43002 6.94509 9.33897 6.84598 9.27435Z" fill="black"/>
</svg>
