<svg width="24" height="25" viewBox="0 0 24 25" fill="none" xmlns="http://www.w3.org/2000/svg">
<path fill-rule="evenodd" clip-rule="evenodd" d="M4.5 17.75C4.5 18.9926 5.50736 20 6.75 20L6.75 16.25C6.75 14.5931 8.09314 13.25 9.75 13.25H14.25C15.9068 13.25 17.25 14.5931 17.25 16.25V20C18.4926 20 19.5 18.9926 19.5 17.75V9.5533C19.5 9.15547 19.342 8.77394 19.0607 8.49264L16.0074 5.43934C15.7261 5.15803 15.3445 5 14.9467 5H9V6.5C9 6.91421 9.33578 7.25 9.75 7.25H14.25C14.8713 7.25 15.375 7.75368 15.375 8.375C15.375 8.99632 14.8713 9.5 14.25 9.5H9.75C8.09314 9.5 6.75 8.15685 6.75 6.5V5C5.50736 5 4.5 6.00736 4.5 7.25V17.75ZM2.25 17.75C2.25 20.2353 4.26472 22.25 6.75 22.25H9H15H17.25C19.7353 22.25 21.75 20.2353 21.75 17.75V9.5533C21.75 8.55874 21.3549 7.60491 20.6516 6.90165L17.5983 3.84835C16.8951 3.14509 15.9413 2.75 14.9467 2.75H6.75C4.26472 2.75 2.25 4.76472 2.25 7.25V17.75ZM15 16.25V20H9V16.25C9 15.8358 9.33578 15.5 9.75 15.5H14.25C14.6642 15.5 15 15.8358 15 16.25Z" fill="#FCFCFC"/>
</svg>
