<svg width="83" height="60" viewBox="0 0 83 60" fill="none" xmlns="http://www.w3.org/2000/svg">
<path d="M43.3955 1.33984C45.0281 1.33984 46.5655 2.10742 47.5469 3.41211L53.7939 11.7197C54.5863 12.7733 55.8282 13.3925 57.1465 13.3926H69.3057C72.1745 13.3928 74.5 15.719 74.5 18.5879V49.1455C74.4998 52.0142 72.1743 54.3396 69.3057 54.3398H13.6943C10.8257 54.3396 8.50022 52.0142 8.5 49.1455V6.53418C8.50022 3.66552 10.8257 1.34006 13.6943 1.33984H43.3955Z" fill="#282F37" stroke="#35414E"/>
<path d="M43.3828 1.33984L43.7256 1.34961C45.4304 1.45191 47.008 2.31322 48.0156 3.70703L54.4053 12.5469L54.9785 13.3398H8.5V7.05664C8.5 3.89957 11.0597 1.33984 14.2168 1.33984H43.3828Z" fill="#35414E" stroke="#35414E"/>
<g filter="url(#filter0_d_655_140016)">
<path d="M74.8059 49.865L78.1597 28.2546C78.6013 25.4088 76.4003 22.8399 73.5205 22.8399L17.8891 22.8398C15.6413 22.8398 13.7088 24.4332 13.2804 26.6399L9.0851 48.2504C8.52256 51.1481 10.742 53.8398 13.6938 53.8398L70.1667 53.8398C72.4815 53.8398 74.4509 52.1525 74.8059 49.865Z" fill="#282F37"/>
<path d="M73.5205 22.3398C76.707 22.3399 79.1419 25.1823 78.6533 28.3311L75.2998 49.9414C74.907 52.4724 72.7282 54.3397 70.167 54.3398H13.6934C10.4274 54.3396 7.97235 51.3614 8.59473 48.1553L12.79 26.5449C13.264 24.1034 15.4016 22.3401 17.8887 22.3398H73.5205Z" stroke="#35414E"/>
</g>
<defs>
<filter id="filter0_d_655_140016" x="0.694262" y="15.5802" width="81.652" height="43.4328" filterUnits="userSpaceOnUse" color-interpolation-filters="sRGB">
<feFlood flood-opacity="0" result="BackgroundImageFix"/>
<feColorMatrix in="SourceAlpha" type="matrix" values="0 0 0 0 0 0 0 0 0 0 0 0 0 0 0 0 0 0 127 0" result="hardAlpha"/>
<feOffset dx="-2.08655" dy="-1.04328"/>
<feGaussianBlur stdDeviation="2.60819"/>
<feComposite in2="hardAlpha" operator="out"/>
<feColorMatrix type="matrix" values="0 0 0 0 0.0823529 0 0 0 0 0.0862745 0 0 0 0 0.105882 0 0 0 0.38 0"/>
<feBlend mode="normal" in2="BackgroundImageFix" result="effect1_dropShadow_655_140016"/>
<feBlend mode="normal" in="SourceGraphic" in2="effect1_dropShadow_655_140016" result="shape"/>
</filter>
</defs>
</svg>
