<svg width="24" height="24" viewBox="0 0 24 24" fill="none" xmlns="http://www.w3.org/2000/svg">
<path d="M8.43163 9.21483C8.43163 9.65666 8.7898 10.0148 9.23163 10.0148C9.67346 10.0148 10.0316 9.65666 10.0316 9.21483H8.43163ZM11.4525 14.3913C11.4525 14.8332 11.8107 15.1913 12.2525 15.1913C12.6944 15.1913 13.0525 14.8332 13.0525 14.3913H11.4525ZM11.975 16.7025C11.5331 16.7025 11.175 17.0607 11.175 17.5025C11.175 17.9444 11.5331 18.3025 11.975 18.3025V16.7025ZM12.025 18.3025C12.4668 18.3025 12.825 17.9444 12.825 17.5025C12.825 17.0607 12.4668 16.7025 12.025 16.7025V18.3025ZM20.2 12C20.2 16.5287 16.5287 20.2 12 20.2V21.8C17.4124 21.8 21.8 17.4124 21.8 12H20.2ZM12 20.2C7.47126 20.2 3.8 16.5287 3.8 12H2.2C2.2 17.4124 6.58761 21.8 12 21.8V20.2ZM3.8 12C3.8 7.47126 7.47126 3.8 12 3.8V2.2C6.58761 2.2 2.2 6.58761 2.2 12H3.8ZM12 3.8C16.5287 3.8 20.2 7.47126 20.2 12H21.8C21.8 6.58761 17.4124 2.2 12 2.2V3.8ZM10.0316 9.21483C10.0316 8.53138 10.2842 8.07492 10.6227 7.77961C10.977 7.4705 11.4744 7.29747 12 7.29747C12.5256 7.29747 13.023 7.4705 13.3773 7.77961C13.7158 8.07492 13.9684 8.53138 13.9684 9.21483H15.5684C15.5684 8.08671 15.1289 7.18448 14.4292 6.574C13.7453 5.97733 12.8586 5.69747 12 5.69747C11.1414 5.69747 10.2547 5.97733 9.57079 6.574C8.87111 7.18448 8.43163 8.08671 8.43163 9.21483H10.0316ZM13.9684 9.21483C13.9684 9.71643 13.8511 10.0168 13.7039 10.244C13.5348 10.5049 13.3095 10.7051 12.9669 11.0225C12.6462 11.3194 12.2474 11.7009 11.9447 12.251C11.6351 12.8137 11.4525 13.4998 11.4525 14.3913H13.0525C13.0525 13.7305 13.1845 13.3169 13.3465 13.0223C13.5155 12.7152 13.7458 12.4819 14.054 12.1963C14.3403 11.9312 14.744 11.5811 15.0467 11.114C15.3712 10.6131 15.5684 10.0074 15.5684 9.21483H13.9684ZM11.975 18.3025H12.025V16.7025H11.975V18.3025Z" fill="#6B7280"/>
</svg>
