<svg width="25" height="24" viewBox="0 0 25 24" fill="none" xmlns="http://www.w3.org/2000/svg">
<g clip-path="url(#clip0_2261_16381)">
<path d="M12.75 2.5C13.395 2.5 14.0252 2.56476 14.6348 2.6875L14.3857 3.65723C13.8567 3.55414 13.3099 3.5 12.75 3.5C8.05558 3.5 4.25 7.30558 4.25 12C4.25 16.6944 8.05558 20.5 12.75 20.5C14.9052 20.5 16.8741 19.6971 18.3721 18.375C20.1359 16.8182 21.25 14.5388 21.25 12C21.25 11.8268 21.2446 11.6549 21.2344 11.4844L22.2285 11.3662C22.2423 11.5758 22.25 11.7871 22.25 12C22.25 14.1391 21.5431 16.1116 20.3506 17.6992C19.8101 18.4188 19.1697 19.06 18.4502 19.6006L17.2529 20.5H20.25V21.5H12.75C7.50329 21.5 3.25 17.2467 3.25 12C3.25 6.75329 7.50329 2.5 12.75 2.5ZM12.75 14.5C13.5785 14.5 14.25 15.1715 14.25 16C14.25 16.8285 13.5785 17.5 12.75 17.5C11.9215 17.5 11.25 16.8285 11.25 16C11.25 15.1715 11.9215 14.5 12.75 14.5ZM8.75 10.5C9.57843 10.5 10.25 11.1715 10.25 12C10.25 12.8285 9.57843 13.5 8.75 13.5C7.92157 13.5 7.25 12.8285 7.25 12C7.25 11.1715 7.92157 10.5 8.75 10.5ZM16.75 10.5C17.5785 10.5 18.25 11.1715 18.25 12C18.25 12.8285 17.5785 13.5 16.75 13.5C15.9215 13.5 15.25 12.8285 15.25 12C15.25 11.1715 15.9215 10.5 16.75 10.5ZM12.75 6.5C13.5785 6.5 14.25 7.17157 14.25 8C14.25 8.82843 13.5785 9.5 12.75 9.5C11.9215 9.5 11.25 8.82843 11.25 8C11.25 7.17157 11.9215 6.5 12.75 6.5ZM20.7588 1.51074L21.0117 2.12207C21.4918 3.28093 22.3889 4.21011 23.5215 4.71387L24.2383 5.0332C24.2404 5.03414 24.2423 5.03463 24.2432 5.03516L24.2451 5.03613V5.03711C24.2465 5.03937 24.25 5.04669 24.25 5.05762C24.25 5.06858 24.2465 5.07586 24.2451 5.07812V5.0791L24.2432 5.08008C24.2423 5.0806 24.2404 5.08107 24.2383 5.08203L23.4795 5.41992C22.3753 5.91104 21.4933 6.80772 21.0049 7.92871L20.7588 8.49414C20.7562 8.50008 20.7537 8.50293 20.7529 8.50391H20.7471L20.7412 8.49414L20.4951 7.92871C20.0067 6.80772 19.1247 5.91104 18.0205 5.41992L17.2607 5.08203L17.2549 5.0791V5.07812C17.2535 5.07585 17.25 5.0686 17.25 5.05762C17.25 5.04666 17.2535 5.03938 17.2549 5.03711V5.03613L17.2607 5.0332L17.9785 4.71387C19.1111 4.21011 20.0083 3.28096 20.4883 2.12207L20.7412 1.51074C20.7443 1.50334 20.7467 1.50039 20.7471 1.5H20.7529L20.7588 1.51074Z" fill="white" stroke="white"/>
</g>
<defs>
<clipPath id="clip0_2261_16381">
<rect width="24" height="24" fill="white" transform="translate(0.75)"/>
</clipPath>
</defs>
</svg>
