<?xml version="1.0" encoding="UTF-8"?>
<svg id="Layer_2" data-name="Layer 2" xmlns="http://www.w3.org/2000/svg" viewBox="0 0 83.34 83.33">
  <defs>
    <style>
      .cls-1 {
        fill: #fff;
      }
    </style>
  </defs>
  <g id="Layer_1-2" data-name="Layer 1">
    <path class="cls-1" d="M81.81,42.51c-16.04-4.43-19.12-7.51-23.55-23.55-.25-.9-1.07-1.53-2.01-1.53s-1.76.62-2.01,1.53c-4.43,16.03-7.51,19.12-23.55,23.55-.9.25-1.53,1.07-1.53,2.01s.62,1.76,1.53,2.01c16.04,4.43,19.12,7.51,23.55,23.55.25.9,1.07,1.53,2.01,1.53s1.76-.62,2.01-1.53c4.43-16.04,7.51-19.12,23.55-23.55.9-.25,1.53-1.07,1.53-2.01s-.62-1.76-1.53-2.01Z"/>
    <path class="cls-1" d="M9.21,19.71c9.76,2.7,11.48,4.42,14.17,14.17.25.9,1.07,1.53,2.01,1.53s1.76-.62,2.01-1.53c2.69-9.75,4.41-11.48,14.17-14.17.9-.25,1.53-1.07,1.53-2.01s-.62-1.76-1.53-2.01c-9.76-2.7-11.48-4.42-14.17-14.17-.25-.9-1.07-1.53-2.01-1.53s-1.76.62-2.01,1.53c-2.7,9.76-4.42,11.48-14.17,14.17-.9.25-1.53,1.07-1.53,2.01s.62,1.76,1.53,2.01Z"/>
    <path class="cls-1" d="M35.97,62.57c-10.36-2.86-12.35-4.85-15.22-15.21-.25-.9-1.07-1.53-2.01-1.53s-1.76.62-2.01,1.53c-2.86,10.36-4.85,12.35-15.22,15.21-.9.25-1.53,1.07-1.53,2.01s.62,1.76,1.53,2.01c10.36,2.86,12.35,4.85,15.22,15.21.25.9,1.07,1.53,2.01,1.53s1.76-.62,2.01-1.53c2.86-10.36,4.85-12.35,15.22-15.21.9-.25,1.53-1.07,1.53-2.01s-.63-1.76-1.53-2.01Z"/>
  </g>
</svg>