<svg width="23" height="22" viewBox="0 0 23 22" fill="none" xmlns="http://www.w3.org/2000/svg">
<path fill-rule="evenodd" clip-rule="evenodd" d="M17.9488 0.98797C18.9327 0.00401002 20.5281 0.00401002 21.512 0.98797C22.496 1.97193 22.496 3.56724 21.512 4.5512L17.2604 8.80286C17.2502 8.81305 17.2401 8.82311 17.2302 8.83304C16.9994 9.06394 16.8387 9.22465 16.6585 9.36518C16.4467 9.53042 16.2174 9.6721 15.9749 9.78769C15.7686 9.886 15.553 9.95782 15.2433 10.061C15.23 10.0655 15.2165 10.07 15.2028 10.0745L13.3653 10.687C12.9243 10.834 12.4381 10.7192 12.1094 10.3905C11.7808 10.0619 11.666 9.57568 11.813 9.1347L12.4255 7.2972C12.43 7.28353 12.4345 7.27003 12.439 7.25672C12.5422 6.94696 12.614 6.73137 12.7123 6.5251C12.8279 6.28255 12.9696 6.05332 13.1348 5.84146C13.2753 5.66128 13.4361 5.50063 13.667 5.2698C13.6769 5.25987 13.6869 5.24982 13.6971 5.23962L17.9488 0.98797ZM20.4514 2.04863C20.0532 1.65046 19.4076 1.65046 19.0094 2.04863L18.8777 2.18035C18.8829 2.19659 18.8885 2.21331 18.8944 2.23049C18.9762 2.46613 19.1315 2.77841 19.4265 3.07345C19.7216 3.36849 20.0339 3.52382 20.2695 3.60558C20.2867 3.61154 20.3034 3.61709 20.3196 3.62226L20.4514 3.49054C20.8495 3.09237 20.8495 2.4468 20.4514 2.04863ZM19.1857 4.75618C18.9193 4.60682 18.6372 4.40542 18.3659 4.13411C18.0946 3.8628 17.8932 3.58066 17.7438 3.31427L14.7578 6.30028C14.4856 6.57251 14.3944 6.66554 14.3176 6.76399C14.2193 6.88995 14.1351 7.02623 14.0664 7.17043C14.0127 7.28313 13.9702 7.40631 13.8485 7.77154L13.6232 8.44743L14.0526 8.87678L14.7284 8.65148C15.0937 8.52974 15.2169 8.48732 15.3296 8.4336C15.4738 8.36488 15.61 8.28065 15.736 8.18241C15.8344 8.10563 15.9275 8.01442 16.1997 7.7422L19.1857 4.75618Z" fill="black"/>
<path fill-rule="evenodd" clip-rule="evenodd" d="M11.5 0.25L11.4426 0.25C9.13423 0.249987 7.32519 0.249977 5.91371 0.439747C4.46897 0.633986 3.32895 1.03933 2.43414 1.93414C1.53933 2.82895 1.13399 3.96897 0.939747 5.41371C0.749977 6.82519 0.749987 8.63423 0.75 10.9426V11.0574C0.749987 13.3658 0.749977 15.1748 0.939747 16.5863C1.13399 18.031 1.53933 19.1711 2.43414 20.0659C3.32895 20.9607 4.46897 21.366 5.91371 21.5603C7.32519 21.75 9.13423 21.75 11.4426 21.75H11.5574C13.8658 21.75 15.6748 21.75 17.0863 21.5603C18.531 21.366 19.6711 20.9607 20.5659 20.0659C21.4607 19.1711 21.866 18.031 22.0603 16.5863C22.25 15.1748 22.25 13.3658 22.25 11.0574V11C22.25 10.5858 21.9142 10.25 21.5 10.25C21.0858 10.25 20.75 10.5858 20.75 11C20.75 13.3782 20.7484 15.0864 20.5736 16.3864C20.5667 16.4377 20.5596 16.4882 20.5522 16.5378L17.7782 14.0412C16.4788 12.8718 14.5437 12.7553 13.1134 13.7605L12.8152 13.9701C12.3182 14.3193 11.6421 14.2608 11.2125 13.8313L6.92282 9.54152C5.78741 8.40612 3.96613 8.34547 2.75771 9.40283L2.25098 9.84622C2.25552 8.05395 2.28124 6.69302 2.42637 5.61358C2.59825 4.33517 2.92514 3.56445 3.4948 2.9948C4.06445 2.42514 4.83517 2.09825 6.11358 1.92637C7.41356 1.75159 9.12177 1.75 11.5 1.75C11.9142 1.75 12.25 1.41421 12.25 1C12.25 0.585787 11.9142 0.25 11.5 0.25ZM2.42637 16.3864C2.59825 17.6648 2.92514 18.4355 3.4948 19.0052C4.06445 19.5749 4.83517 19.9018 6.11358 20.0736C7.41356 20.2484 9.12177 20.25 11.5 20.25C13.8782 20.25 15.5864 20.2484 16.8864 20.0736C18.1648 19.9018 18.9355 19.5749 19.5052 19.0052C19.7487 18.7617 19.9479 18.4814 20.1096 18.1404C20.0707 18.1166 20.0334 18.089 19.9983 18.0574L16.7747 15.1562C15.9951 14.4545 14.834 14.3846 13.9758 14.9877L13.6776 15.1973C12.5843 15.9657 11.0968 15.8369 10.1519 14.8919L5.86216 10.6022C5.28515 10.0252 4.35958 9.99436 3.74546 10.5317L2.25038 11.8399C2.25296 13.7884 2.27289 15.2448 2.42637 16.3864Z" fill="black"/>
</svg>
