<svg width="22" height="20" viewBox="0 0 22 20" fill="none" xmlns="http://www.w3.org/2000/svg">
<path fill-rule="evenodd" clip-rule="evenodd" d="M8.94358 0.25C7.10583 0.249985 5.65019 0.249973 4.51098 0.403136C3.33856 0.560764 2.38961 0.892881 1.64124 1.64124C0.892881 2.38961 0.560764 3.33856 0.403136 4.51098C0.249973 5.65019 0.249985 7.10582 0.25 8.94357V11.0564C0.249985 12.8942 0.249973 14.3498 0.403136 15.489C0.560764 16.6614 0.892881 17.6104 1.64124 18.3588C2.38961 19.1071 3.33856 19.4392 4.51098 19.5969C5.65018 19.75 7.1058 19.75 8.94354 19.75H13.0564C13.3706 19.75 13.6738 19.75 13.966 19.7492C13.9773 19.7497 13.9886 19.75 14 19.75C14.0129 19.75 14.0257 19.7497 14.0384 19.749C15.4224 19.7448 16.5607 19.7217 17.489 19.5969C18.6614 19.4392 19.6104 19.1071 20.3588 18.3588C21.1071 17.6104 21.4392 16.6614 21.5969 15.489C21.75 14.3498 21.75 12.8942 21.75 11.0565V8.94359C21.75 7.10585 21.75 5.65018 21.5969 4.51098C21.4392 3.33856 21.1071 2.38961 20.3588 1.64124C19.6104 0.892881 18.6614 0.560764 17.489 0.403136C16.5607 0.278332 15.4224 0.255232 14.0384 0.250964C14.0257 0.250324 14.0129 0.25 14 0.25C13.9886 0.25 13.9773 0.250255 13.966 0.250758C13.6737 0.249995 13.3707 0.249998 13.0564 0.25H8.94358ZM13.25 1.75002C13.1677 1.75 13.0844 1.75 13 1.75H9C7.09318 1.75 5.73851 1.75159 4.71085 1.88976C3.70476 2.02503 3.12511 2.27869 2.7019 2.7019C2.27869 3.12511 2.02503 3.70476 1.88976 4.71085C1.75159 5.73851 1.75 7.09318 1.75 9V11C1.75 12.9068 1.75159 14.2615 1.88976 15.2892C2.02503 16.2952 2.27869 16.8749 2.7019 17.2981C3.12511 17.7213 3.70476 17.975 4.71085 18.1102C5.73851 18.2484 7.09318 18.25 9 18.25H13C13.0844 18.25 13.1677 18.25 13.25 18.25L13.25 1.75002ZM14.75 18.2443C15.7836 18.2334 16.6082 18.2018 17.2892 18.1102C18.2952 17.975 18.8749 17.7213 19.2981 17.2981C19.7213 16.8749 19.975 16.2952 20.1102 15.2892C20.2484 14.2615 20.25 12.9068 20.25 11V9C20.25 7.09318 20.2484 5.73851 20.1102 4.71085C19.975 3.70476 19.7213 3.12511 19.2981 2.7019C18.8749 2.27869 18.2952 2.02503 17.2892 1.88976C16.6082 1.79821 15.7836 1.76662 14.75 1.75573L14.75 18.2443Z" fill="white"/>
</svg>
