<svg width="21" height="20" viewBox="0 0 21 20" fill="none" xmlns="http://www.w3.org/2000/svg">
<path fill-rule="evenodd" clip-rule="evenodd" d="M12.7064 2.52978C12.7064 3.77242 11.6991 4.77978 10.4564 4.77978C9.21381 4.77978 8.20645 3.77242 8.20645 2.52978C8.20645 1.28714 9.21381 0.279785 10.4564 0.279785C11.6991 0.279785 12.7064 1.28714 12.7064 2.52978ZM2.95645 12.2798C4.19909 12.2798 5.20645 11.2724 5.20645 10.0298C5.20645 8.78714 4.19909 7.77978 2.95645 7.77978C1.71381 7.77978 0.706451 8.78714 0.706451 10.0298C0.706451 11.2724 1.71381 12.2798 2.95645 12.2798ZM12.7064 10.0298C12.7064 11.2724 11.6991 12.2798 10.4564 12.2798C9.21381 12.2798 8.20645 11.2724 8.20645 10.0298C8.20645 8.78714 9.21381 7.77978 10.4564 7.77978C11.6991 7.77978 12.7064 8.78714 12.7064 10.0298ZM20.2064 10.0298C20.2064 11.2724 19.1991 12.2798 17.9564 12.2798C16.7138 12.2798 15.7064 11.2724 15.7064 10.0298C15.7064 8.78714 16.7138 7.77978 17.9564 7.77978C19.1991 7.77978 20.2064 8.78714 20.2064 10.0298ZM17.9564 4.77978C19.1991 4.77978 20.2064 3.77242 20.2064 2.52978C20.2064 1.28714 19.1991 0.279785 17.9564 0.279785C16.7138 0.279785 15.7064 1.28714 15.7064 2.52978C15.7064 3.77242 16.7138 4.77978 17.9564 4.77978ZM5.20645 2.52978C5.20645 3.77242 4.19909 4.77978 2.95645 4.77978C1.71381 4.77978 0.706451 3.77242 0.706451 2.52978C0.706451 1.28714 1.71381 0.279785 2.95645 0.279785C4.19909 0.279785 5.20645 1.28714 5.20645 2.52978ZM10.4564 19.7798C11.6991 19.7798 12.7064 18.7724 12.7064 17.5298C12.7064 16.2871 11.6991 15.2798 10.4564 15.2798C9.21381 15.2798 8.20645 16.2871 8.20645 17.5298C8.20645 18.7724 9.21381 19.7798 10.4564 19.7798ZM20.2064 17.5298C20.2064 18.7724 19.1991 19.7798 17.9564 19.7798C16.7138 19.7798 15.7064 18.7724 15.7064 17.5298C15.7064 16.2871 16.7138 15.2798 17.9564 15.2798C19.1991 15.2798 20.2064 16.2871 20.2064 17.5298ZM2.95645 19.7798C4.19909 19.7798 5.20645 18.7724 5.20645 17.5298C5.20645 16.2871 4.19909 15.2798 2.95645 15.2798C1.71381 15.2798 0.706451 16.2871 0.706451 17.5298C0.706451 18.7724 1.71381 19.7798 2.95645 19.7798Z" fill="#737373"/>
</svg>
