<svg width="24" height="24" viewBox="0 0 24 24" fill="none" xmlns="http://www.w3.org/2000/svg">
<path d="M18.2842 14.5C18.5069 16.171 19.829 17.4931 21.5 17.7158V18.2832C19.829 18.5059 18.5069 19.829 18.2842 21.5H17.7158C17.4931 19.829 16.171 18.5059 14.5 18.2832V17.7158C16.171 17.4931 17.4931 16.171 17.7158 14.5H18.2842ZM8.52148 5.5C8.76433 8.69105 11.309 11.2357 14.5 11.4785V12.5205C11.3089 12.7633 8.76332 15.3089 8.52051 18.5H7.47949C7.23668 15.3089 4.69111 12.7633 1.5 12.5205V11.4785C4.69105 11.2357 7.23567 8.69105 7.47852 5.5H8.52148ZM17.1084 2.5C17.3181 3.7212 18.2788 4.68193 19.5 4.8916V5.10742C18.2787 5.31703 17.3181 6.27875 17.1084 7.5H16.8916C16.6819 6.27875 15.7213 5.31703 14.5 5.10742V4.8916C15.7212 4.68193 16.6819 3.7212 16.8916 2.5H17.1084Z" fill="none" stroke="white"/>
</svg>
