<svg width="25" height="24" viewBox="0 0 25 24" fill="none" xmlns="http://www.w3.org/2000/svg">
<g clip-path="url(#clip0_2261_16458)">
<path fill-rule="evenodd" clip-rule="evenodd" d="M20.6893 0C21.2751 0 21.75 0.474874 21.75 1.06066V3H23.6893C24.2751 3 24.75 3.47487 24.75 4.06066C24.75 4.34196 24.6382 4.61175 24.4393 4.81066L22.25 7C21.9299 7.32014 21.4956 7.5 21.0429 7.5H19.5H18.841L13.5455 12.7955C13.1062 13.2348 12.3938 13.2348 11.9545 12.7955C11.5152 12.3562 11.5152 11.6438 11.9545 11.2045L17.25 5.90901V5.25V3.70711C17.25 3.25435 17.4299 2.82014 17.75 2.5L19.9393 0.31066C20.1382 0.111747 20.408 0 20.6893 0ZM4.5 12C4.5 7.44365 8.19365 3.75 12.75 3.75C13.3152 3.75 13.866 3.80667 14.3974 3.91428C15.0064 4.03759 15.6 3.64389 15.7233 3.03493C15.8466 2.42597 15.4529 1.83235 14.844 1.70904C14.1664 1.57183 13.466 1.5 12.75 1.5C6.95101 1.5 2.25 6.20101 2.25 12C2.25 17.799 6.95101 22.5 12.75 22.5C18.549 22.5 23.25 17.799 23.25 12C23.25 11.2818 23.1777 10.5794 23.0397 9.89987C22.916 9.29099 22.3222 8.89765 21.7133 9.02133C21.1044 9.14501 20.7111 9.73887 20.8347 10.3478C20.943 10.8807 21 11.4331 21 12C21 16.5563 17.3063 20.25 12.75 20.25C8.19365 20.25 4.5 16.5563 4.5 12ZM12.5453 8.25544C13.1657 8.22223 13.6418 7.69234 13.6086 7.07191C13.5754 6.45148 13.0455 5.97544 12.425 6.00866C9.26192 6.17799 6.75 8.79526 6.75 12C6.75 15.3137 9.43629 18 12.75 18C15.9118 18 18.5015 15.5551 18.7332 12.4519C18.7794 11.8323 18.3147 11.2925 17.6951 11.2462C17.0755 11.2 16.5357 11.6647 16.4894 12.2843C16.3448 14.222 14.7253 15.75 12.75 15.75C10.6789 15.75 9 14.071 9 12C9 9.99761 10.5699 8.36119 12.5453 8.25544Z" fill="#FCFCFC"/>
</g>
<defs>
<clipPath id="clip0_2261_16458">
<rect width="24" height="24" fill="white" transform="translate(0.75)"/>
</clipPath>
</defs>
</svg>
