<svg width="20" height="20" viewBox="0 0 20 20" fill="none" xmlns="http://www.w3.org/2000/svg">
<path d="M10 0C15.5228 0 20 4.47715 20 10C20 15.5228 15.5228 20 10 20C4.47715 20 0 15.5228 0 10C0 4.47715 4.47715 0 10 0ZM10 2C5.58172 2 2 5.58172 2 10C2 14.4183 5.58172 18 10 18C14.4183 18 18 14.4183 18 10C18 5.58172 14.4183 2 10 2ZM10 4C10.5523 4 11 4.44772 11 5V9.58594L12.707 11.293L12.7754 11.3691C13.0957 11.7619 13.0731 12.3409 12.707 12.707C12.3409 13.0731 11.7619 13.0957 11.3691 12.7754L11.293 12.707L9.58594 11C9.21091 10.625 9.00005 10.1163 9 9.58594V5C9 4.44772 9.44771 4 10 4Z" fill="#2D5BFF"/>
</svg>
