<svg width="34" height="34" viewBox="0 0 34 34" fill="none" xmlns="http://www.w3.org/2000/svg">
<path fill-rule="evenodd" clip-rule="evenodd" d="M12.9875 2.3337C12.5816 2.67959 12.3787 2.85255 12.1619 2.99782C11.6651 3.33082 11.1071 3.56194 10.5203 3.67779C10.2643 3.72833 9.99855 3.74954 9.46696 3.79196C8.13132 3.89855 7.4635 3.95184 6.90634 4.14863C5.61768 4.6038 4.60405 5.61743 4.14888 6.9061C3.95208 7.46326 3.89879 8.13108 3.7922 9.46672C3.74978 9.99831 3.72857 10.2641 3.67803 10.5201C3.56219 11.1069 3.33107 11.6648 2.99806 12.1617C2.85279 12.3784 2.67984 12.5814 2.33395 12.9873C1.46489 14.0071 1.03034 14.517 0.775522 15.0501C0.186154 16.2832 0.186154 17.7167 0.775522 18.9497C1.03034 19.4829 1.46488 19.9928 2.33395 21.0126C2.6798 21.4184 2.8528 21.6214 2.99806 21.8382C3.33107 22.335 3.56219 22.893 3.67803 23.4798C3.72857 23.7357 3.74978 24.0015 3.7922 24.5331C3.89879 25.8688 3.95208 26.5366 4.14888 27.0937C4.60405 28.3824 5.61768 29.396 6.90634 29.8512C7.4635 30.048 8.13132 30.1013 9.46696 30.2079C9.99855 30.2503 10.2643 30.2715 10.5203 30.3221C11.1071 30.4379 11.6651 30.669 12.1619 31.002C12.3787 31.1473 12.5816 31.3202 12.9875 31.6661C14.0073 32.5352 14.5172 32.9697 15.0503 33.2246C16.2834 33.8139 17.7169 33.8139 18.95 33.2246C19.4831 32.9697 19.993 32.5352 21.0128 31.6661C21.4187 31.3202 21.6217 31.1473 21.8384 31.002C22.3352 30.669 22.8932 30.4379 23.48 30.3221C23.736 30.2715 24.0018 30.2503 24.5334 30.2079C25.869 30.1013 26.5368 30.048 27.094 29.8512C28.3826 29.396 29.3963 28.3824 29.8514 27.0937C30.0482 26.5366 30.1015 25.8688 30.2081 24.5331C30.2505 24.0015 30.2718 23.7357 30.3223 23.4798C30.4381 22.893 30.6693 22.335 31.0023 21.8382C31.1475 21.6214 31.3205 21.4185 31.6664 21.0126C32.5355 19.9928 32.97 19.4829 33.2248 18.9497C33.8142 17.7167 33.8142 16.2832 33.2248 15.0501C32.97 14.517 32.5355 14.0071 31.6664 12.9873C31.3205 12.5814 31.1475 12.3784 31.0023 12.1617C30.6693 11.6648 30.4381 11.1069 30.3223 10.5201C30.2718 10.2641 30.2505 9.99831 30.2081 9.46672C30.1015 8.13108 30.0482 7.46326 29.8514 6.9061C29.3963 5.61743 28.3826 4.6038 27.094 4.14863C26.5368 3.95184 25.869 3.89855 24.5334 3.79196C24.0018 3.74954 23.736 3.72833 23.48 3.67779C22.8932 3.56194 22.3352 3.33082 21.8384 2.99782C21.6217 2.85255 21.4187 2.6796 21.0128 2.3337C19.993 1.46463 19.4831 1.03009 18.95 0.775278C17.7169 0.18591 16.2834 0.18591 15.0503 0.775278C14.5172 1.03009 14.0073 1.46464 12.9875 2.3337ZM24.2893 13.4385C24.819 12.9088 24.819 12.0499 24.2893 11.5202C23.7596 10.9905 22.9007 10.9905 22.371 11.5202L14.2873 19.6039L11.6293 16.9459C11.0995 16.4162 10.2407 16.4162 9.71098 16.9459C9.18126 17.4756 9.18126 18.3345 9.71098 18.8642L13.3281 22.4814C13.8579 23.0111 14.7167 23.0111 15.2464 22.4814L24.2893 13.4385Z" fill="#006FEE"/>
</svg>
