<svg width="43" height="43" viewBox="0 0 43 43" fill="none" xmlns="http://www.w3.org/2000/svg">
<path fill-rule="evenodd" clip-rule="evenodd" d="M12.7461 5.19678L12.6509 5.20906L11.2073 5.39335L9.4535 5.61449C8.38486 5.73964 7.39298 6.23244 6.64774 7.0085C5.9025 7.78456 5.45027 8.79559 5.3685 9.86842C4.73133 18.7426 4.73133 27.6511 5.3685 36.5253C5.44382 37.6061 5.90319 38.6243 6.66361 39.396C7.42404 40.1677 8.43538 40.642 9.51493 40.7332C17.7341 41.4212 25.2591 41.4212 33.4751 40.7332C34.5547 40.642 35.566 40.1677 36.3265 39.396C37.0869 38.6243 37.5463 37.6061 37.6216 36.5253C38.2586 27.6511 38.2586 18.7426 37.6216 9.86842C37.5399 8.79605 37.0881 7.78539 36.3435 7.0094C35.5989 6.2334 34.6077 5.7403 33.5396 5.61449L31.7889 5.39335L30.3454 5.20906L30.2471 5.19678H12.7461Z" fill="#A6EBFF"/>
<path d="M13.8214 5.7802C13.8206 5.25105 13.9242 4.72692 14.1262 4.23785C14.3283 3.74878 14.6248 3.30436 14.9988 2.93005C15.3728 2.55574 15.817 2.25888 16.306 2.05647C16.7949 1.85406 17.3189 1.75008 17.8481 1.75049H25.1458C26.2149 1.75049 27.2403 2.17521 27.9963 2.93122C28.7523 3.68722 29.177 4.71259 29.177 5.78174C29.177 6.85089 28.7523 7.87626 27.9963 8.63226C27.2403 9.38827 26.2149 9.81299 25.1458 9.81299H17.8511C17.3214 9.81339 16.7968 9.70936 16.3074 9.50683C15.8179 9.30431 15.3732 9.00727 14.9986 8.63271C14.6241 8.25816 14.327 7.81342 14.1245 7.32396C13.922 6.8345 13.821 6.30991 13.8214 5.7802Z" fill="#636AE8"/>
</svg>
