<svg width="24" height="24" viewBox="0 0 24 24" fill="none" xmlns="http://www.w3.org/2000/svg">
<path fill-rule="evenodd" clip-rule="evenodd" d="M4.91858 3.81594C5.05656 3.33297 5.498 3 6.00029 3H12.0003H18.0003C18.5026 3 18.944 3.33297 19.082 3.81594L19.832 6.44094C20.0027 7.03835 19.6568 7.66102 19.0593 7.83171C18.4619 8.0024 17.8393 7.65647 17.6686 7.05906L17.1517 5.25H13.1249L13.1198 18.75H14.2503C14.8716 18.75 15.3753 19.2537 15.3753 19.875C15.3753 20.4963 14.8716 21 14.2503 21H12.0003H11.9949C11.9946 21 11.9943 21 11.994 21H9.75029C9.12897 21 8.62529 20.4963 8.62529 19.875C8.62529 19.2537 9.12897 18.75 9.75029 18.75H10.8698L10.8749 5.25H6.84888L6.332 7.05906C6.16131 7.65647 5.53864 8.0024 4.94123 7.83171C4.34381 7.66102 3.99789 7.03835 4.16858 6.44094L4.91858 3.81594Z" fill="#737373"/>
</svg>
