<svg width="24" height="25" fill="none" viewBox="0 0 24 25" xmlns="http://www.w3.org/2000/svg">
<path d="M2.5 6.7002C2.5 4.81458 2.5 3.87177 3.08579 3.28598C3.67157 2.7002 4.61438 2.7002 6.5 2.7002C8.38562 2.7002 9.32843 2.7002 9.91421 3.28598C10.5 3.87177 10.5 4.81458 10.5 6.7002C10.5 8.58581 10.5 9.52862 9.91421 10.1144C9.32843 10.7002 8.38562 10.7002 6.5 10.7002C4.61438 10.7002 3.67157 10.7002 3.08579 10.1144C2.5 9.52862 2.5 8.58581 2.5 6.7002Z" stroke-width="1.5"/>
<path d="M13.5 17.7002C13.5 15.8146 13.5 14.8718 14.0858 14.286C14.6716 13.7002 15.6144 13.7002 17.5 13.7002C19.3856 13.7002 20.3284 13.7002 20.9142 14.286C21.5 14.8718 21.5 15.8146 21.5 17.7002C21.5 19.5858 21.5 20.5286 20.9142 21.1144C20.3284 21.7002 19.3856 21.7002 17.5 21.7002C15.6144 21.7002 14.6716 21.7002 14.0858 21.1144C13.5 20.5286 13.5 19.5858 13.5 17.7002Z" stroke-width="1.5"/>
<path d="M2.5 17.7002C2.5 15.8146 2.5 14.8718 3.08579 14.286C3.67157 13.7002 4.61438 13.7002 6.5 13.7002C8.38562 13.7002 9.32843 13.7002 9.91421 14.286C10.5 14.8718 10.5 15.8146 10.5 17.7002C10.5 19.5858 10.5 20.5286 9.91421 21.1144C9.32843 21.7002 8.38562 21.7002 6.5 21.7002C4.61438 21.7002 3.67157 21.7002 3.08579 21.1144C2.5 20.5286 2.5 19.5858 2.5 17.7002Z" stroke-width="1.5"/>
<path d="M13.5 6.7002C13.5 4.81458 13.5 3.87177 14.0858 3.28598C14.6716 2.7002 15.6144 2.7002 17.5 2.7002C19.3856 2.7002 20.3284 2.7002 20.9142 3.28598C21.5 3.87177 21.5 4.81458 21.5 6.7002C21.5 8.58581 21.5 9.52862 20.9142 10.1144C20.3284 10.7002 19.3856 10.7002 17.5 10.7002C15.6144 10.7002 14.6716 10.7002 14.0858 10.1144C13.5 9.52862 13.5 8.58581 13.5 6.7002Z" stroke-width="1.5"/>
</svg>
