<svg width="17" height="13" viewBox="0 0 17 13" xmlns="http://www.w3.org/2000/svg">
<path fill-rule="evenodd" clip-rule="evenodd" d="M6.52935 0.942814C6.82225 1.23571 6.82225 1.71058 6.52935 2.00347L2.80968 5.72314L10.999 5.72315C11.9524 5.72315 13.3657 6.00298 14.5623 6.86449C15.797 7.75354 16.749 9.22871 16.749 11.4731C16.749 11.8874 16.4132 12.2231 15.999 12.2231C15.5848 12.2231 15.249 11.8874 15.249 11.4731C15.249 9.71759 14.5343 8.69275 13.6858 8.0818C12.799 7.44331 11.7123 7.22315 10.999 7.22315L2.80968 7.22314L6.52935 10.9428C6.82225 11.2357 6.82225 11.7106 6.52935 12.0035C6.23646 12.2964 5.76159 12.2964 5.46869 12.0035L0.468693 7.00347C0.1758 6.71058 0.1758 6.23571 0.468693 5.94281L5.46869 0.942814C5.76159 0.649921 6.23646 0.649921 6.52935 0.942814Z"/>
</svg>
