<svg width="18" height="18" viewBox="0 0 18 18" fill="none" xmlns="http://www.w3.org/2000/svg">
<path fill-rule="evenodd" clip-rule="evenodd" d="M14.2936 7.62344C14.611 6.88174 14.8237 6.14108 14.8237 5.29461C14.8237 2.32988 12.4938 0 9.52905 0H0V18H12.7064C15.6701 18 18 15.6712 18 12.7064C18 10.3766 16.4118 8.36514 14.2936 7.62448V7.62344ZM3.17635 3.17635H9.52905C10.694 3.17635 11.6473 4.12967 11.6473 5.29461C11.6473 6.45954 10.694 7.41183 9.52905 7.41183H3.17635V3.17635ZM12.7064 14.8237H3.17635V10.5882H12.7064C13.8703 10.5882 14.8237 11.5405 14.8237 12.7054C14.8237 13.8703 13.8703 14.8226 12.7064 14.8226V14.8237Z" fill="#737373"/>
</svg>
