<svg width="25" height="24" viewBox="0 0 25 24" fill="none" xmlns="http://www.w3.org/2000/svg">
<path d="M12.4531 7L12.4531 14M12.4531 14L15.4531 11M12.4531 14L9.45312 11" stroke="#737373" stroke-width="1.5" stroke-linecap="round" stroke-linejoin="round"/>
<path d="M16.4531 17H12.4531H8.45312" stroke="#737373" stroke-width="1.5" stroke-linecap="round"/>
<path d="M2.45312 12C2.45312 7.28595 2.45312 4.92893 3.91759 3.46447C5.38206 2 7.73908 2 12.4531 2C17.1672 2 19.5242 2 20.9887 3.46447C22.4531 4.92893 22.4531 7.28595 22.4531 12C22.4531 16.714 22.4531 19.0711 20.9887 20.5355C19.5242 22 17.1672 22 12.4531 22C7.73908 22 5.38206 22 3.91759 20.5355C2.45312 19.0711 2.45312 16.714 2.45312 12Z" stroke="#737373" stroke-width="1.5"/>
</svg>
