<svg width="25" height="24" viewBox="0 0 25 24" fill="none" xmlns="http://www.w3.org/2000/svg">
<path d="M18.6211 8C18.6211 9.10457 17.7257 10 16.6211 10C15.5165 10 14.6211 9.10457 14.6211 8C14.6211 6.89543 15.5165 6 16.6211 6C17.7257 6 18.6211 6.89543 18.6211 8Z" fill="#737373"/>
<path fill-rule="evenodd" clip-rule="evenodd" d="M12.5637 1.25H12.6785C14.9869 1.24999 16.7959 1.24998 18.2074 1.43975C19.6521 1.63399 20.7921 2.03933 21.687 2.93414C22.5818 3.82895 22.9871 4.96897 23.1813 6.41371C23.3711 7.82519 23.3711 9.63423 23.3711 11.9426V12.0309C23.3711 13.9397 23.3711 15.5023 23.2674 16.7745C23.1633 18.0531 22.9498 19.1214 22.472 20.0087C22.2612 20.4001 22.0023 20.7506 21.687 21.0659C20.7921 21.9607 19.6521 22.366 18.2074 22.5603C16.7959 22.75 14.9869 22.75 12.6785 22.75H12.5637C10.2553 22.75 8.44629 22.75 7.0348 22.5603C5.59006 22.366 4.45004 21.9607 3.55523 21.0659C2.76195 20.2726 2.35229 19.2852 2.13445 18.0604C1.92044 16.8573 1.8813 15.3603 1.87316 13.5015C1.87109 13.0287 1.87109 12.5286 1.87109 12.001V11.9426C1.87108 9.63424 1.87107 7.82519 2.06084 6.41371C2.25508 4.96897 2.66042 3.82895 3.55523 2.93414C4.45004 2.03933 5.59006 1.63399 7.0348 1.43975C8.44628 1.24998 10.2553 1.24999 12.5637 1.25ZM7.23467 2.92637C5.95627 3.09825 5.18555 3.42514 4.61589 3.9948C4.04623 4.56445 3.71934 5.33517 3.54746 6.61358C3.37269 7.91356 3.37109 9.62178 3.37109 12C3.37109 12.2905 3.3711 12.5715 3.37144 12.8435L4.37257 11.9675C5.28384 11.1702 6.65726 11.2159 7.51347 12.0721L11.8032 16.3618C12.4904 17.0491 13.5722 17.1428 14.3674 16.5839L14.6656 16.3744C15.8098 15.5702 17.3579 15.6634 18.3975 16.599L21.2279 19.1463C21.5128 18.548 21.682 17.7618 21.7724 16.6527C21.8705 15.4482 21.8711 13.9459 21.8711 12C21.8711 9.62178 21.8695 7.91356 21.6947 6.61358C21.5228 5.33517 21.196 4.56445 20.6263 3.9948C20.0566 3.42514 19.2859 3.09825 18.0075 2.92637C16.7075 2.75159 14.9993 2.75 12.6211 2.75C10.2429 2.75 8.53465 2.75159 7.23467 2.92637Z" fill="#737373"/>
</svg>
