<svg width="25" height="25" viewBox="0 0 25 25" fill="none" xmlns="http://www.w3.org/2000/svg">
<path d="M2.67969 12.7996C2.67969 10.557 2.67969 9.43566 3.1885 8.50609C3.69732 7.57653 4.62689 6.99961 6.48604 5.84577L8.44604 4.62934C10.4113 3.40965 11.3939 2.7998 12.4797 2.7998C13.5655 2.7998 14.5481 3.40965 16.5133 4.62934L18.4733 5.84577C20.3325 6.99961 21.2621 7.57653 21.7709 8.50609C22.2797 9.43566 22.2797 10.557 22.2797 12.7996V14.2903C22.2797 18.1131 22.2797 20.0246 21.1315 21.2122C19.9834 22.3998 18.1355 22.3998 14.4397 22.3998H10.5197C6.82388 22.3998 4.97597 22.3998 3.82783 21.2122C2.67969 20.0246 2.67969 18.1131 2.67969 14.2903V12.7996Z" stroke-width="1.5"/>
<path d="M15.42 18.4795H9.54004" stroke-width="1.5" stroke-linecap="round"/>
</svg>
