<svg width="14" height="14" viewBox="0 0 14 14" fill="none" xmlns="http://www.w3.org/2000/svg">
<path fill-rule="evenodd" clip-rule="evenodd" d="M8.5 2C8.5 2.82843 7.82843 3.5 7 3.5C6.17157 3.5 5.5 2.82843 5.5 2C5.5 1.17157 6.17157 0.5 7 0.5C7.82843 0.5 8.5 1.17157 8.5 2ZM2 8.5C2.82843 8.5 3.5 7.82843 3.5 7C3.5 6.17157 2.82843 5.5 2 5.5C1.17157 5.5 0.5 6.17157 0.5 7C0.5 7.82843 1.17157 8.5 2 8.5ZM8.5 7C8.5 7.82843 7.82843 8.5 7 8.5C6.17157 8.5 5.5 7.82843 5.5 7C5.5 6.17157 6.17157 5.5 7 5.5C7.82843 5.5 8.5 6.17157 8.5 7ZM13.5 7C13.5 7.82843 12.8284 8.5 12 8.5C11.1716 8.5 10.5 7.82843 10.5 7C10.5 6.17157 11.1716 5.5 12 5.5C12.8284 5.5 13.5 6.17157 13.5 7ZM12 3.5C12.8284 3.5 13.5 2.82843 13.5 2C13.5 1.17157 12.8284 0.5 12 0.5C11.1716 0.5 10.5 1.17157 10.5 2C10.5 2.82843 11.1716 3.5 12 3.5ZM3.5 2C3.5 2.82843 2.82843 3.5 2 3.5C1.17157 3.5 0.5 2.82843 0.5 2C0.5 1.17157 1.17157 0.5 2 0.5C2.82843 0.5 3.5 1.17157 3.5 2ZM7 13.5C7.82843 13.5 8.5 12.8284 8.5 12C8.5 11.1716 7.82843 10.5 7 10.5C6.17157 10.5 5.5 11.1716 5.5 12C5.5 12.8284 6.17157 13.5 7 13.5ZM13.5 12C13.5 12.8284 12.8284 13.5 12 13.5C11.1716 13.5 10.5 12.8284 10.5 12C10.5 11.1716 11.1716 10.5 12 10.5C12.8284 10.5 13.5 11.1716 13.5 12ZM2 13.5C2.82843 13.5 3.5 12.8284 3.5 12C3.5 11.1716 2.82843 10.5 2 10.5C1.17157 10.5 0.5 11.1716 0.5 12C0.5 12.8284 1.17157 13.5 2 13.5Z" fill="#737373"/>
</svg>
