<svg width="25" height="24" viewBox="0 0 25 24" fill="none" xmlns="http://www.w3.org/2000/svg">
<path fill-rule="evenodd" clip-rule="evenodd" d="M18.6393 15V15.0001C19.286 15.0053 19.7855 14.7742 20.1419 14.3829C20.5076 13.9815 20.8711 13.2412 20.8711 12C20.8711 7.44365 17.1774 3.75 12.6211 3.75C8.06474 3.75 4.37109 7.44365 4.37109 12C4.37109 16.5563 8.06474 20.25 12.6211 20.25C12.8118 20.25 12.9759 20.2449 13.1164 20.2366C13.0487 19.9153 12.9541 19.4204 12.9566 18.9004C12.9596 18.2663 13.1044 17.4377 13.6995 16.6802C14.2792 15.9424 15.0795 15.5363 15.872 15.3112C16.6552 15.0887 17.5761 15 18.6211 15H18.6393ZM13.2647 21.0149L13.2645 21.0074C13.2648 21.0126 13.2648 21.015 13.2647 21.0149ZM18.6211 17.25C21.1121 17.2701 23.1211 15.375 23.1211 12C23.1211 6.20101 18.4201 1.5 12.6211 1.5C6.8221 1.5 2.12109 6.20101 2.12109 12C2.12109 17.799 6.8221 22.5 12.6211 22.5C15.9072 22.5 15.6382 21.2557 15.3622 19.9787C15.0712 18.6325 14.7723 17.25 18.6211 17.25ZM14.1211 7.5C14.1211 8.32843 13.4495 9 12.6211 9C11.7927 9 11.1211 8.32843 11.1211 7.5C11.1211 6.67157 11.7927 6 12.6211 6C13.4495 6 14.1211 6.67157 14.1211 7.5ZM17.1211 11.625C17.9495 11.625 18.6211 10.9534 18.6211 10.125C18.6211 9.29657 17.9495 8.625 17.1211 8.625C16.2927 8.625 15.6211 9.29657 15.6211 10.125C15.6211 10.9534 16.2927 11.625 17.1211 11.625ZM9.99609 10.125C9.99609 10.9534 9.32452 11.625 8.49609 11.625C7.66767 11.625 6.99609 10.9534 6.99609 10.125C6.99609 9.29657 7.66767 8.625 8.49609 8.625C9.32452 8.625 9.99609 9.29657 9.99609 10.125ZM9.24609 16.5C10.0745 16.5 10.7461 15.8284 10.7461 15C10.7461 14.1716 10.0745 13.5 9.24609 13.5C8.41767 13.5 7.74609 14.1716 7.74609 15C7.74609 15.8284 8.41767 16.5 9.24609 16.5Z" fill="#737373"/>
</svg>
