<svg width="18" height="15" viewBox="0 0 18 15" fill="none" xmlns="http://www.w3.org/2000/svg">
<path fill-rule="evenodd" clip-rule="evenodd" d="M13.4697 0.46967C13.1768 0.762563 13.1768 1.23744 13.4697 1.53033L15.1893 3.25L5.96421 3.25C5.05996 3.24999 4.33068 3.24998 3.74239 3.3033C3.13604 3.35826 2.60624 3.47456 2.12499 3.75241C1.55492 4.08154 1.08154 4.55492 0.752405 5.12499C0.474554 5.60624 0.358253 6.13604 0.303297 6.74239C0.249975 7.3307 0.249983 8.06 0.249992 8.96427V9.03582C0.249983 9.94005 0.249975 10.6693 0.303295 11.2576C0.35825 11.8639 0.474546 12.3937 0.752398 12.875C1.08153 13.4451 1.55492 13.9185 2.12499 14.2476C2.60624 14.5254 3.13604 14.6417 3.74239 14.6967C4.33069 14.75 5.05997 14.75 5.96422 14.75H13C13.4142 14.75 13.75 14.4142 13.75 14C13.75 13.5858 13.4142 13.25 13 13.25H5.99999C5.05157 13.25 4.3904 13.2493 3.87779 13.2028C3.37548 13.1573 3.08989 13.0726 2.87499 12.9486C2.53295 12.7511 2.24891 12.467 2.05144 12.125C1.92736 11.9101 1.8427 11.6245 1.79717 11.1222C1.75071 10.6096 1.74999 9.94842 1.74999 9C1.74999 8.05158 1.75071 7.39041 1.79717 6.87779C1.8427 6.37548 1.92737 6.0899 2.05144 5.87499C2.24892 5.53295 2.53295 5.24892 2.87499 5.05144C3.08989 4.92737 3.37548 4.84271 3.87779 4.79718C4.39041 4.75072 5.05158 4.75 6 4.75H15.1893L13.4697 6.46967C13.1768 6.76256 13.1768 7.23744 13.4697 7.53033C13.7626 7.82322 14.2374 7.82322 14.5303 7.53033L17.5303 4.53033C17.8232 4.23744 17.8232 3.76256 17.5303 3.46967L14.5303 0.46967C14.2374 0.176777 13.7626 0.176777 13.4697 0.46967Z" fill="#737373"/>
</svg>
