<svg width="21" height="20" viewBox="0 0 21 20" fill="none" xmlns="http://www.w3.org/2000/svg">
<path fill-rule="evenodd" clip-rule="evenodd" d="M3.12109 15.25C3.12109 16.4926 4.12845 17.5 5.37109 17.5L5.37109 13.75C5.37109 12.0931 6.71424 10.75 8.37109 10.75H12.8711C14.5279 10.75 15.8711 12.0931 15.8711 13.75V17.5C17.1137 17.5 18.1211 16.4926 18.1211 15.25V7.0533C18.1211 6.65547 17.9631 6.27394 17.6817 5.99264L14.6284 2.93934C14.3471 2.65803 13.9656 2.5 13.5678 2.5H7.62109V4C7.62109 4.41421 7.95688 4.75 8.37109 4.75H12.8711C13.4924 4.75 13.9961 5.25368 13.9961 5.875C13.9961 6.49632 13.4924 7 12.8711 7H8.37109C6.71424 7 5.37109 5.65685 5.37109 4V2.5C4.12845 2.5 3.12109 3.50736 3.12109 4.75V15.25ZM0.871094 15.25C0.871094 17.7353 2.88581 19.75 5.37109 19.75H7.62109H13.6211H15.8711C18.3564 19.75 20.3711 17.7353 20.3711 15.25V7.0533C20.3711 6.05874 19.976 5.10491 19.2727 4.40165L16.2194 1.34835C15.5162 0.645088 14.5624 0.25 13.5678 0.25H5.37109C2.88581 0.25 0.871094 2.26472 0.871094 4.75V15.25ZM13.6211 13.75V17.5H7.62109V13.75C7.62109 13.3358 7.95688 13 8.37109 13H12.8711C13.2853 13 13.6211 13.3358 13.6211 13.75Z" fill="#737373"/>
</svg>
