<svg width="25" height="25" viewBox="0 0 25 25" fill="none" xmlns="http://www.w3.org/2000/svg">
<path d="M16.7555 3.60685L7.65138 6.63147C1.53157 8.67812 1.53157 12.0153 7.65138 14.0519L10.3534 14.9492L11.2507 17.6511C13.2872 23.771 16.6345 23.771 18.6711 17.6511L21.7058 8.55714C23.0568 4.47391 20.8387 2.24577 16.7555 3.60685ZM17.0781 9.031L13.2469 12.8823C13.0957 13.0336 12.9041 13.1041 12.7126 13.1041C12.521 13.1041 12.3295 13.0336 12.1782 12.8823C11.8858 12.59 11.8858 12.106 12.1782 11.8136L16.0094 7.9623C16.3018 7.66992 16.7857 7.66992 17.0781 7.9623C17.3705 8.25468 17.3705 8.73862 17.0781 9.031Z" fill="#737373"/>
</svg>
