<svg width="21" height="21" viewBox="0 0 21 21" fill="none" xmlns="http://www.w3.org/2000/svg">
<path d="M5.51465 11.3438C7.86189 11.3443 9.76556 13.2474 9.76562 15.5947V16.7178L9.75977 16.9365C9.64945 19.1097 7.90649 20.8523 5.7334 20.9629L5.51465 20.9688H4.3916L4.17285 20.9629C1.9269 20.8491 0.140831 18.992 0.140625 16.7178V15.5947C0.14069 13.3204 1.92682 11.4634 4.17285 11.3496L4.3916 11.3438H5.51465ZM19.5732 11.6953C20.2429 11.7634 20.7655 12.329 20.7656 13.0166V19.2979L20.7588 19.4336C20.6952 20.0586 20.1982 20.5556 19.5732 20.6191L19.4375 20.626H13.1562C12.4687 20.6258 11.9031 20.1032 11.835 19.4336L11.8281 19.2979V13.0166C11.8283 12.2832 12.4228 11.6886 13.1562 11.6885H19.4375L19.5732 11.6953ZM4.3916 12.9375C2.92432 12.9375 1.73444 14.1275 1.73438 15.5947V16.7178C1.73459 18.1849 2.92441 19.375 4.3916 19.375H5.51465C6.98141 19.3745 8.17166 18.1846 8.17188 16.7178V15.5947C8.17181 14.1278 6.9815 12.938 5.51465 12.9375H4.3916ZM13.4219 19.0322H19.1719V13.2822H13.4219V19.0322ZM9.29395 0.700195C9.8011 -0.206274 11.1054 -0.206511 11.6123 0.700195L15.8799 8.33594C16.3746 9.22117 15.7346 10.3119 14.7207 10.3125H6.18555L6 10.2998C5.09592 10.1765 4.56253 9.16595 5.02637 8.33594L9.29395 0.700195ZM6.63867 8.71875H14.2676L10.4531 1.8916L6.63867 8.71875Z" fill="#737373"/>
</svg>
