<svg width="13" height="13" viewBox="0 0 13 13" fill="none" xmlns="http://www.w3.org/2000/svg">
<path fill-rule="evenodd" clip-rule="evenodd" d="M9.01074 5.20484C9.01074 5.07279 8.96281 4.94522 8.87586 4.84584L6.60985 2.25612C6.46743 2.09336 6.26169 2 6.04542 2H5.97607C5.7598 2 5.55405 2.09336 5.41164 2.25612L3.14563 4.84584C3.05867 4.94522 3.01074 5.07279 3.01074 5.20484C3.01074 5.50592 3.25482 5.75 3.55591 5.75L8.46558 5.75C8.76666 5.75 9.01074 5.50592 9.01074 5.20484ZM3.01074 7.79516C3.01074 7.92721 3.05867 8.05478 3.14563 8.15416L5.41164 10.7439C5.55405 10.9066 5.7598 11 5.97607 11H6.04542C6.26169 11 6.46743 10.9066 6.60985 10.7439L8.87586 8.15415C8.96281 8.05478 9.01074 7.92721 9.01074 7.79516C9.01074 7.49408 8.76666 7.25 8.46558 7.25H3.55591C3.25482 7.25 3.01074 7.49408 3.01074 7.79516Z" fill="#A3A3A3"/>
</svg>
