<svg width="93" height="94" viewBox="0 0 93 94" xmlns="http://www.w3.org/2000/svg">
<path d="M67.5893 17.6785L65.1039 19.773C59.8371 24.2064 53.1471 26.6872 46.2649 26.7588C39.3827 26.8303 32.6371 24.4892 27.2792 20.1636L24.7536 18.1266C31.7116 20.0736 38.9389 21.037 46.2019 20.9615C53.4649 20.886 60.6733 19.7698 67.5893 17.6812M75.3486 25.2781C73.4015 32.2361 72.4382 39.4661 72.5137 46.7291C72.5893 53.9922 73.7054 61.1978 75.794 68.1138L73.7049 65.6311C69.2716 60.3643 66.7881 53.6744 66.7165 46.7894C66.6449 39.9045 68.986 33.1644 73.3089 27.8065L75.3513 25.2781M17.1512 25.8832L19.2403 28.3659C23.6736 33.6327 26.1571 40.3227 26.2287 47.2077C26.3003 54.0926 23.9591 60.8327 19.6363 66.1906L17.5939 68.7189C19.5409 61.7609 20.5042 54.531 20.4287 47.268C20.3532 40.005 19.2371 32.7992 17.1485 25.8832M46.6831 67.241C53.568 67.1694 60.3109 69.5105 65.6688 73.8361L68.1943 75.8732C61.2363 73.9261 54.0091 72.9628 46.7461 73.0383C39.483 73.1138 32.2747 74.23 25.3586 76.3185L27.844 74.2267C33.1108 69.7934 39.8008 67.3125 46.6831 67.241ZM88.1905 4.40265L82.3321 7.80912C71.1519 14.3124 58.6755 17.6342 46.1659 17.7643C33.6563 17.8943 21.1135 14.8326 9.8005 8.56323L3.87256 5.2793L7.27905 11.1376C20.2828 33.4953 20.5692 61.0461 8.03315 83.6693L4.74921 89.5972L10.6076 86.1907C21.7878 79.6875 34.2642 76.3656 46.7738 76.2356C59.2834 76.1055 71.8262 79.1672 83.1392 85.4366L89.0672 88.7205L85.6607 82.8622C72.657 60.5045 72.3705 32.9537 84.9066 10.3305L88.1905 4.40265ZM5.33756 88.9965L22.1232 68.1978C32.0214 55.9292 31.8388 38.3675 21.6849 26.31L4.44555 5.8378L25.2719 22.6477C31.4062 27.5982 38.8652 30.0278 46.2953 29.9505C53.7255 29.8733 61.1296 27.2892 67.1597 22.215L87.6049 5.00049L70.8193 25.7992C60.9211 38.0678 61.1036 55.6295 71.2575 67.687L88.4969 88.1593L67.6705 71.3493C61.5362 66.3988 54.0772 63.9693 46.6471 64.0466C39.2169 64.1238 31.8129 66.7079 25.7828 71.7821L5.33753 88.9938L5.33756 88.9965Z" />
</svg>
