<svg width="25" height="25" viewBox="0 0 25 25" fill="none" xmlns="http://www.w3.org/2000/svg">
<path d="M12.3359 19.0293C16.2019 19.0293 19.3359 15.8953 19.3359 12.0293C19.3359 8.1633 16.2019 5.0293 12.3359 5.0293C8.46994 5.0293 5.33594 8.1633 5.33594 12.0293C5.33594 15.8953 8.46994 19.0293 12.3359 19.0293Z" fill="#737373"/>
<path d="M12.3359 22.9893C11.7859 22.9893 11.3359 22.5793 11.3359 22.0293V21.9493C11.3359 21.3993 11.7859 20.9493 12.3359 20.9493C12.8859 20.9493 13.3359 21.3993 13.3359 21.9493C13.3359 22.4993 12.8859 22.9893 12.3359 22.9893ZM19.4759 20.1693C19.2159 20.1693 18.9659 20.0693 18.7659 19.8793L18.6359 19.7493C18.2459 19.3593 18.2459 18.7293 18.6359 18.3393C19.0259 17.9493 19.6559 17.9493 20.0459 18.3393L20.1759 18.4693C20.5659 18.8593 20.5659 19.4893 20.1759 19.8793C19.9859 20.0693 19.7359 20.1693 19.4759 20.1693ZM5.19594 20.1693C4.93594 20.1693 4.68594 20.0693 4.48594 19.8793C4.09594 19.4893 4.09594 18.8593 4.48594 18.4693L4.61594 18.3393C5.00594 17.9493 5.63594 17.9493 6.02594 18.3393C6.41594 18.7293 6.41594 19.3593 6.02594 19.7493L5.89594 19.8793C5.70594 20.0693 5.44594 20.1693 5.19594 20.1693ZM22.3359 13.0293H22.2559C21.7059 13.0293 21.2559 12.5793 21.2559 12.0293C21.2559 11.4793 21.7059 11.0293 22.2559 11.0293C22.8059 11.0293 23.2959 11.4793 23.2959 12.0293C23.2959 12.5793 22.8859 13.0293 22.3359 13.0293ZM2.41594 13.0293H2.33594C1.78594 13.0293 1.33594 12.5793 1.33594 12.0293C1.33594 11.4793 1.78594 11.0293 2.33594 11.0293C2.88594 11.0293 3.37594 11.4793 3.37594 12.0293C3.37594 12.5793 2.96594 13.0293 2.41594 13.0293ZM19.3459 6.0193C19.0859 6.0193 18.8359 5.9193 18.6359 5.7293C18.2459 5.3393 18.2459 4.7093 18.6359 4.3193L18.7659 4.1893C19.1559 3.7993 19.7859 3.7993 20.1759 4.1893C20.5659 4.5793 20.5659 5.2093 20.1759 5.5993L20.0459 5.7293C19.8559 5.9193 19.6059 6.0193 19.3459 6.0193ZM5.32594 6.0193C5.06594 6.0193 4.81594 5.9193 4.61594 5.7293L4.48594 5.5893C4.09594 5.1993 4.09594 4.5693 4.48594 4.1793C4.87594 3.7893 5.50594 3.7893 5.89594 4.1793L6.02594 4.3093C6.41594 4.6993 6.41594 5.3293 6.02594 5.7193C5.83594 5.9193 5.57594 6.0193 5.32594 6.0193ZM12.3359 3.0693C11.7859 3.0693 11.3359 2.6593 11.3359 2.1093V2.0293C11.3359 1.4793 11.7859 1.0293 12.3359 1.0293C12.8859 1.0293 13.3359 1.4793 13.3359 2.0293C13.3359 2.5793 12.8859 3.0693 12.3359 3.0693Z" fill="#737373"/>
</svg>
