<svg width="24" height="25" viewBox="0 0 24 25" fill="none" xmlns="http://www.w3.org/2000/svg">
<path fill-rule="evenodd" clip-rule="evenodd" d="M4.125 3.55945C3.50368 3.55945 3 4.06313 3 4.68445C3 5.30577 3.50368 5.80945 4.125 5.80945L19.875 5.80945C20.4963 5.80945 21 5.30577 21 4.68445C21 4.06313 20.4963 3.55945 19.875 3.55945L4.125 3.55945ZM4.125 14.0594C3.50368 14.0594 3 14.5631 3 15.1844C3 15.8058 3.50368 16.3094 4.125 16.3094L19.875 16.3094C20.4963 16.3094 21 15.8058 21 15.1844C21 14.5631 20.4963 14.0594 19.875 14.0594L4.125 14.0594ZM7.125 19.3094C6.50368 19.3094 6 19.8131 6 20.4344C6 21.0558 6.50368 21.5594 7.125 21.5594L16.875 21.5594C17.4963 21.5594 18 21.0558 18 20.4344C18 19.8131 17.4963 19.3094 16.875 19.3094L7.125 19.3094ZM6 9.93445C6 9.31313 6.50368 8.80945 7.125 8.80945L16.875 8.80945C17.4963 8.80945 18 9.31313 18 9.93445C18 10.5558 17.4963 11.0594 16.875 11.0594L7.125 11.0594C6.50368 11.0594 6 10.5558 6 9.93445Z" fill="#737373"/>
</svg>
