<svg width="18" height="15" viewBox="0 0 18 15" fill="none" xmlns="http://www.w3.org/2000/svg">
<path fill-rule="evenodd" clip-rule="evenodd" d="M4.53033 0.46967C4.82322 0.762563 4.82322 1.23744 4.53033 1.53033L2.81066 3.25L12.0358 3.25C12.94 3.24999 13.6693 3.24998 14.2576 3.3033C14.864 3.35826 15.3938 3.47456 15.875 3.75241C16.4451 4.08154 16.9185 4.55492 17.2476 5.12499C17.5254 5.60624 17.6417 6.13604 17.6967 6.74239C17.75 7.3307 17.75 8.06 17.75 8.96427V9.03582C17.75 9.94005 17.75 10.6693 17.6967 11.2576C17.6418 11.8639 17.5255 12.3937 17.2476 12.875C16.9185 13.4451 16.4451 13.9185 15.875 14.2476C15.3938 14.5254 14.864 14.6417 14.2576 14.6967C13.6693 14.75 12.94 14.75 12.0358 14.75H5.00001C4.58579 14.75 4.25001 14.4142 4.25001 14C4.25001 13.5858 4.58579 13.25 5.00001 13.25H12C12.9484 13.25 13.6096 13.2493 14.1222 13.2028C14.6245 13.1573 14.9101 13.0726 15.125 12.9486C15.4671 12.7511 15.7511 12.467 15.9486 12.125C16.0726 11.9101 16.1573 11.6245 16.2028 11.1222C16.2493 10.6096 16.25 9.94842 16.25 9C16.25 8.05158 16.2493 7.39041 16.2028 6.87779C16.1573 6.37548 16.0726 6.0899 15.9486 5.87499C15.7511 5.53295 15.467 5.24892 15.125 5.05144C14.9101 4.92737 14.6245 4.84271 14.1222 4.79718C13.6096 4.75072 12.9484 4.75 12 4.75H2.81066L4.53033 6.46967C4.82322 6.76256 4.82322 7.23744 4.53033 7.53033C4.23744 7.82322 3.76256 7.82322 3.46967 7.53033L0.46967 4.53033C0.176777 4.23744 0.176777 3.76256 0.46967 3.46967L3.46967 0.46967C3.76256 0.176777 4.23744 0.176777 4.53033 0.46967Z" fill="#737373"/>
</svg>
