<?xml version="1.0" encoding="UTF-8"?>
<svg id="Layer_2" data-name="Layer 2" xmlns="http://www.w3.org/2000/svg" viewBox="0 0 360 360">
  <defs>
    <style>
      .cls-1 {
        fill-rule: evenodd;
      }
    </style>
  </defs>
  <g id="bold">
    <g>
      <path class="cls-1" d="M196.57,162.03h-62.22v-41.49h62.22c11.41,0,20.75,9.34,20.75,20.75s-9.34,20.74-20.75,20.74Z"/>
      <path class="cls-1" d="M248.43,213.88c0,11.41-9.34,20.74-20.74,20.74h-93.34v-41.48h93.34c11.4,0,20.74,9.33,20.74,20.74Z"/>
      <path class="cls-1" d="M323.81,0H36.19C16.2,0,0,16.2,0,36.19v287.62c0,19.99,16.2,36.19,36.19,36.19h287.62c19.99,0,36.19-16.2,36.19-36.19V36.19c0-19.99-16.2-36.19-36.19-36.19ZM227.69,265.73h-124.45V89.43h93.33c29.04,0,51.86,22.82,51.86,51.86,0,8.29-2.08,15.55-5.19,22.81,20.74,7.26,36.3,26.96,36.3,49.78,0,29.04-22.82,51.85-51.85,51.85Z"/>
    </g>
  </g>
</svg>