<?xml version="1.0" encoding="UTF-8"?>
<svg id="Layer_2" data-name="Layer 2" xmlns="http://www.w3.org/2000/svg" viewBox="0 0 360 360">
  <defs>
    <style>
      .cls-1 {
        fill-rule: evenodd;
      }
    </style>
  </defs>
  <g id="left_para_align" data-name="left para align">
    <path class="cls-1" d="M323.81,0H36.19C16.2,0,0,16.2,0,36.19v287.62c0,19.99,16.2,36.19,36.19,36.19h287.62c19.99,0,36.19-16.2,36.19-36.19V36.19c0-19.99-16.2-36.19-36.19-36.19ZM76.52,85.24h157.99v21.93H76.52v-21.93ZM76.52,166.01h157.99v21.93H76.52v-21.93ZM234.51,268.71H76.52v-21.93h157.99v21.93ZM285.66,228.33H76.52v-21.94h209.14v21.94ZM285.66,147.56H76.52v-21.94h209.14v21.94Z"/>
  </g>
</svg>