<?xml version="1.0" encoding="UTF-8"?>
<svg id="Layer_2" data-name="Layer 2" xmlns="http://www.w3.org/2000/svg" viewBox="0 0 360 360">
  <defs>
    <style>
      .cls-1 {
        fill-rule: evenodd;
      }
    </style>
  </defs>
  <g id="Layer_16" data-name="Layer 16">
    <path class="cls-1" d="M324.28,0H35.72C15.99,0,0,15.99,0,35.72v288.56c0,19.73,15.99,35.72,35.72,35.72h288.56c19.73,0,35.72-15.99,35.72-35.72V35.72c0-19.73-15.99-35.72-35.72-35.72ZM145.56,128.21h98.71v21.94h-98.71v-21.94ZM96.97,249.03c-12.75,0-23.08-10.33-23.08-23.08s10.33-23.08,23.08-23.08,23.08,10.33,23.08,23.08-10.33,23.08-23.08,23.08ZM96.97,128.21c-12.75,0-23.08-10.33-23.08-23.08s10.33-23.08,23.08-23.08,23.08,10.34,23.08,23.08-10.33,23.08-23.08,23.08ZM244.27,270.96h-98.71v-21.94h98.71v21.94ZM276.23,230.58h-130.67v-21.94h130.67v21.94ZM276.23,109.76h-130.67v-21.94h130.67v21.94Z"/>
  </g>
</svg>