<?xml version="1.0" encoding="UTF-8"?>
<svg id="Layer_2" data-name="Layer 2" xmlns="http://www.w3.org/2000/svg" viewBox="0 0 360 360">
  <defs>
    <style>
      .cls-1 {
        fill-rule: evenodd;
      }
    </style>
  </defs>
  <g id="Layer_16" data-name="Layer 16">
    <path class="cls-1" d="M324.28,0H35.72C15.99,0,0,15.99,0,35.72v288.56c0,19.73,15.99,35.72,35.72,35.72h288.56c19.73,0,35.72-15.99,35.72-35.72V35.72c0-19.73-15.99-35.72-35.72-35.72ZM141.7,128.81h98.71v21.94h-98.71v-21.94ZM82.7,91.77l11.37-6.5h10.92v49.07h-12.87v-35.03l-9.42,4.87v-12.41ZM115.06,249.81h-34.19v-9.1l15.86-16.78c.91-.95,1.64-1.85,2.21-2.69.56-.85.98-1.68,1.26-2.51.29-.82.43-1.64.43-2.46,0-1.26-.3-2.26-.88-3-.59-.73-1.45-1.26-2.6-1.59-1.15-.32-2.55-.49-4.19-.49-1.17,0-2.39.11-3.64.33-1.26.22-2.55.54-3.87.98-1.32.43-2.68.99-4.06,1.69v-11.38c2.03-1.13,4.26-1.92,6.69-2.37,2.43-.46,4.83-.68,7.22-.68,3.59,0,6.79.49,9.58,1.49,2.8,1,4.99,2.54,6.57,4.61,1.58,2.08,2.37,4.77,2.37,8.07,0,1.99-.3,3.85-.91,5.59-.61,1.73-1.46,3.39-2.57,4.97-1.1,1.58-2.46,3.19-4.06,4.84l-9.56,9.75h18.34v10.73ZM240.41,271.57h-98.71v-21.94h98.71v21.94ZM272.36,231.19h-130.66v-21.94h130.66v21.94ZM272.36,110.37h-130.66v-21.94h130.66v21.94Z"/>
  </g>
</svg>