<?xml version="1.0" encoding="UTF-8"?>
<svg id="Layer_2" data-name="Layer 2" xmlns="http://www.w3.org/2000/svg" viewBox="0 0 360 360">
  <defs>
    <style>
      .cls-1 {
        fill-rule: evenodd;
      }
    </style>
  </defs>
  <g id="underline">
    <path class="cls-1" d="M324.75,0H35.25C15.78,0,0,15.78,0,35.25v289.49c0,19.47,15.78,35.25,35.25,35.25h289.49c19.47,0,35.25-15.78,35.25-35.25V35.25c0-19.47-15.78-35.25-35.25-35.25ZM114.98,85.24h26.21v78.83c0,16.24,12.71,33.42,28.4,37.64,26.4,7.11,50.22-12.58,50.22-37.84v-78.63h26.21v78.68c0,29.96-20.19,56.56-49.33,63.53-43.21,10.34-81.71-22.12-81.71-63.58v-78.63ZM259.13,268.71H101.87v-26.21h157.26v26.21Z"/>
  </g>
</svg>